<?xml version="1.0" standalone="no"?>
<!DOCTYPE svg PUBLIC "-//W3C//DTD SVG 1.1//EN" "http://www.w3.org/Graphics/SVG/1.1/DTD/svg11.dtd" >
<svg xmlns="http://www.w3.org/2000/svg" xmlns:xlink="http://www.w3.org/1999/xlink" version="1.1">
<metadata></metadata>
<defs>
<font id="coverface_seregular" horiz-adv-x="1604" >
<font-face units-per-em="2048" ascent="1638" descent="-410" />
<missing-glyph horiz-adv-x="556" />
<glyph horiz-adv-x="0" />
<glyph unicode="&#xd;" horiz-adv-x="160" />
<glyph unicode=" "  horiz-adv-x="556" />
<glyph unicode="&#x09;" horiz-adv-x="556" />
<glyph unicode="&#xa0;" horiz-adv-x="556" />
<glyph unicode="!" horiz-adv-x="553" d="M80 204q0 143 160 195l35 4q138 0 194 -151l4 -61q0 -94 -90 -160q-45 -30 -104 -30h-9q-135 0 -186 160zM80 753v986q0 180 164 221l26 4q151 0 199 -160l4 -43v-1064q0 -113 -116 -173q-39 -17 -82 -17h-5q-95 0 -160 95q-30 39 -30 151z" />
<glyph unicode="&#x22;" horiz-adv-x="1030" d="M80 1797q24 119 136 158q25 9 51 9q72 0 148 -70l28 -54l5 -15q6 -18 6 -53q0 -64 -21 -182q-38 -399 -58 -414q-35 -34 -50 -39l-19 -7q-22 -8 -42 -8q-67 0 -113 86q-69 523 -71 589zM576 1797q24 119 136 158q25 9 51 9q72 0 148 -70l28 -54l5 -15q6 -18 6 -53 q0 -64 -21 -182q-38 -399 -58 -414q-35 -34 -50 -39l-19 -7q-22 -8 -42 -8q-67 0 -113 86q-69 523 -71 589z" />
<glyph unicode="#" horiz-adv-x="1548" d="M80 692v20q16 124 124 124h100l52 392h-92q-65 0 -108 84l-8 36q0 93 104 128h140q46 380 68 380q48 48 92 48h8q86 0 120 -92l4 -36l-40 -300h312q10 0 40 260q12 132 76 152q0 11 60 16q85 0 120 -96l4 -24h-4l4 -4v-4l-4 -4v-4h4l-40 -292h140q112 -22 112 -128 q0 -79 -92 -116l-32 -4h-164l-52 -392h144q124 -16 124 -124v-12q-26 -112 -112 -112l-16 -4l-4 4l-4 -4l-4 4l-4 -4l-4 4l-4 -4l-4 4l-4 -4l-4 4l-4 -4l-4 4l-4 -4l-4 4l-4 -4l-4 4l-4 -4l-4 4l-4 -4l-4 4l-4 -4l-4 4l-4 -4l-4 4l-4 -4l-4 4l-4 -4l-4 4l-4 -4l-4 4l-4 -4 l-4 4l-4 -4l-4 4l-4 -4l-4 4l-4 -4l-4 4l-4 -4l-4 4l-4 -4l-4 4l-4 -4l-4 4l-64 -428q-51 -72 -108 -72h-4q-87 0 -124 88l-4 32l48 380l-4 -4h-4l-4 4l-4 -4l-4 4l-4 -4l-4 4l-4 -4l-4 4l-4 -4l-4 4l-4 -4l-4 4l-4 -4l-4 4l-4 -4l-4 4l-4 -4l-4 4l-4 -4l-4 4l-4 -4l-4 4 l-4 -4l-4 4l-4 -4l-4 4l-4 -4l-4 4l-4 -4l-4 4l-4 -4l-4 4l-4 -4l-4 4l-4 -4l-4 4l-4 -4l-4 4l-4 -4l-4 4l-4 -4l-4 4l-4 -4l-4 4l-4 -4l-4 4l-4 -4l-4 4l-4 -4l-4 4l-4 -4l-4 4l-4 -4l-4 4l-4 -4l-4 4l-4 -4l-4 4l-4 -4l-4 4l-4 -4l-4 4l-4 -4l-4 4l-4 -4l-4 4l-4 -4l-4 4 l-4 -4l-4 4l-4 -4l-4 4l-4 -4l-4 4l-4 -4l-4 4l-4 -4l-4 4q-55 -436 -68 -436q-41 -64 -112 -64q-88 0 -120 100l-4 12l4 4l-4 4l4 4h-4l4 4v8l-4 4l52 356l-4 4h-4l-4 -4l-4 4l-4 -4l-4 4l-4 -4l-4 4l-4 -4l-4 4l-4 -4l-4 4l-4 -4l-4 4l-4 -4l-4 4v-4q-95 0 -128 108z M560 836h316l52 392h-316z" />
<glyph unicode="$" horiz-adv-x="1396" d="M80 1324v76q0 274 276 456q120 74 265 97v175q0 59 51 85l24 5h21q30 0 61 -42q11 -24 11 -59v-154q234 -9 383 -167q36 -54 36 -120q0 -132 -156 -188l-28 -4q-81 0 -172 68q-24 11 -63 17v-364q41 -9 87 -17q440 -124 440 -568q0 -398 -440 -580q-46 -13 -87 -22v-190 q0 -74 -48 -99l-35 -8q-26 0 -58 22q-27 28 -27 69v188q-328 5 -513 232q-24 52 -24 108q0 129 156 184l40 4q85 0 184 -96q78 -36 157 -40v448q-227 56 -321 116q-220 158 -220 368zM472 1340q0 -49 149 -94v306q-88 -31 -137 -112q-12 -24 -12 -84v-16zM789 431 q42 22 83 57q48 57 48 112v52q0 117 -120 148q-6 1 -11 2v-371z" />
<glyph unicode="%" horiz-adv-x="1824" d="M80 1510v17q0 268 277 407q66 21 160 30q231 0 376 -216q60 -107 60 -208v-34q0 -226 -220 -372q-105 -56 -216 -56q-267 0 -407 272q-30 90 -30 160zM275 187q0 50 168 303l778 1266q87 165 165 165h21q110 0 139 -130v-4q0 -67 -78 -173q-843 -1375 -947 -1531 q-45 -43 -104 -43q-119 0 -142 147zM365 1514q0 -118 139 -151h17q105 0 147 125v39q0 103 -117 147l-30 5q-156 -26 -156 -156v-9zM867 447q0 232 216 376q102 60 208 60h30q216 0 359 -212q64 -113 64 -229q0 -249 -237 -393q-97 -48 -186 -48h-30q-241 0 -385 255 q-39 100 -39 191zM1152 438q0 -116 134 -151h35q68 0 121 86q17 39 17 74q-28 151 -151 151h-17q-139 -29 -139 -160z" />
<glyph unicode="&#x26;" horiz-adv-x="1773" d="M80 516q0 320 406 622q-134 197 -134 376v44q0 200 178 333q122 73 255 73q280 0 410 -246q39 -94 39 -186q0 -246 -224 -480l233 -329q199 156 233 156l44 4q110 0 164 -125l9 -52q0 -117 -147 -199q-27 -28 -83 -65q143 -177 143 -203q9 -17 9 -48v-13 q0 -116 -130 -164l-52 -8q-98 0 -186 134l-69 82q-335 -221 -588 -221h-9q-359 0 -488 402zM439 507q29 -151 147 -151q141 0 372 151v4q-226 316 -251 342q-268 -185 -268 -346zM707 1532q0 -74 73 -199q95 99 95 199v17q0 56 -86 56h-9q-73 0 -73 -69v-4z" />
<glyph unicode="'" horiz-adv-x="644" d="M80 1280q108 517 128 580q62 104 180 104q102 0 168 -124l8 -60v-16q0 -55 -92 -216q-168 -364 -192 -372q-44 -20 -60 -20h-20q-100 0 -120 124z" />
<glyph unicode="(" horiz-adv-x="666" d="M80 985l5 5v30q0 527 184 997q59 199 158 199h60q99 -27 99 -119v-25q-223 -504 -223 -1047v-110q0 -383 134 -799q89 -220 89 -237v-35q-27 -95 -124 -95h-35q-31 0 -49 15q-50 0 -144 268q-149 456 -149 888v60z" />
<glyph unicode=")" horiz-adv-x="666" d="M80 -121q0 17 89 237q134 416 134 799v110q0 543 -223 1047v25q0 92 99 119h60q100 0 159 -199q183 -470 183 -997v-30l5 -5l-5 -5v-60q0 -432 -149 -888q-94 -268 -144 -268q-17 -15 -49 -15h-35q-97 0 -124 95v35z" />
<glyph unicode="*" horiz-adv-x="1260" d="M80 1078v18q0 86 130 141l179 108v4q-151 81 -277 162q-32 38 -32 80v4q0 81 77 112l42 7q47 0 204 -101l109 -60v295q0 83 92 116h31q91 0 113 -105v-306h3q262 154 274 154q14 7 39 7q81 0 116 -91v-32q0 -75 -88 -115q-219 -126 -221 -134q215 -120 281 -169 q28 -39 28 -67v-17q0 -98 -119 -116q-44 0 -236 123l-77 42v-299q0 -82 -95 -116h-18q-89 0 -119 88l-4 28v299q-250 -148 -288 -162h-28q-95 0 -116 102z" />
<glyph unicode="+" horiz-adv-x="1232" d="M80 802v16q0 117 132 160l17 3h216v212q0 69 88 133q51 20 85 20q92 0 149 -95q20 -33 20 -109v-161h212q69 0 133 -88q20 -51 20 -85q0 -92 -95 -149q-33 -20 -109 -20h-161v-165q0 -152 -122 -197l-41 -3h-16q-117 0 -160 132l-3 17v216h-165q-152 0 -196 122z" />
<glyph unicode="," horiz-adv-x="644" d="M80 -264q108 517 128 580q62 104 180 104q102 0 168 -124l8 -60v-16q0 -55 -92 -216q-168 -363 -192 -372q-44 -20 -60 -20h-20q-100 0 -120 124z" />
<glyph unicode="-" horiz-adv-x="1082" d="M80 802v16q0 117 132 160l17 3h620q69 0 133 -88q20 -51 20 -85q0 -92 -95 -149q-33 -20 -109 -20h-518q-152 0 -197 122z" />
<glyph unicode="." horiz-adv-x="553" d="M80 204q0 143 160 195l35 4q138 0 194 -151l4 -61q0 -94 -90 -160q-45 -30 -104 -30h-9q-135 0 -186 160z" />
<glyph unicode="/" horiz-adv-x="1240" d="M80 -30q4 48 280 700l564 1380q24 51 96 72h4l4 -4l4 4l4 -4l4 4v-4l4 4q56 0 104 -68q12 -19 12 -52v-12q0 -39 -92 -248l-760 -1848q-44 -48 -100 -48h-4q-83 0 -116 84z" />
<glyph unicode="0" horiz-adv-x="1643" d="M80 978v5q0 743 489 938q141 43 250 43q315 0 519 -225q225 -261 225 -748v-21q0 -731 -484 -926q-113 -43 -255 -43h-5q-495 0 -674 515q-65 200 -65 462zM473 957q0 -441 225 -545q58 -17 95 -17h57q248 0 306 380q13 80 13 177v57q0 374 -168 510q-75 52 -177 52 q-226 0 -303 -234q-48 -152 -48 -333v-47z" />
<glyph unicode="1" horiz-adv-x="873" d="M80 1769v13q0 84 99 156q48 26 152 26h212q188 0 229 -117q21 -23 21 -108v-1535q0 -152 -155 -198l-39 -5h-22q-83 0 -151 100q-26 44 -26 116v1354h-130q-113 0 -173 116q-17 39 -17 82z" />
<glyph unicode="2" horiz-adv-x="1474" d="M80 226v52q0 143 134 216q216 147 536 467q203 224 203 346v95q0 116 -134 195q-40 17 -95 21q-133 0 -233 -155l-35 -152q-71 -112 -160 -112h-21q-141 0 -191 155l-4 44q0 168 125 346q186 220 511 220q421 0 583 -367q48 -130 48 -264q0 -237 -143 -433 q-71 -111 -320 -363l-164 -147h484q147 0 190 -168v-35q0 -139 -168 -186h-969q-52 0 -125 61q-52 59 -52 164z" />
<glyph unicode="3" horiz-adv-x="1440" d="M80 481q0 129 143 190l43 5h17q134 0 186 -152q0 -84 91 -108q85 -34 151 -34q92 0 186 52q69 52 69 181q0 102 -99 195q-85 47 -182 47q-142 58 -142 190q0 141 155 191q156 13 156 56q39 38 39 130v30q-33 151 -177 151q-121 0 -173 -155q-71 -96 -178 -96 q-86 0 -155 91q-31 45 -31 100v13q0 146 182 302q152 100 294 100h13l17 4q176 -17 277 -61q320 -157 320 -440v-39l4 -22q0 -120 -65 -264l-47 -82q186 -201 186 -454q0 -412 -398 -571q-96 -30 -186 -30h-117q-287 0 -488 221q-91 135 -91 259z" />
<glyph unicode="4" horiz-adv-x="1617" d="M80 654l4 30v61q0 68 108 220l558 878q117 117 247 117h34q215 0 290 -281v-13l-9 -822h22q145 0 199 -155l4 -39q0 -103 -95 -169q-42 -30 -130 -30h-4l-5 -182v-73q0 -139 -151 -190l-43 -5h-22q-52 0 -125 61q-52 68 -52 142l4 251h-320l-350 5q-83 19 -129 86 q-26 42 -35 108zM586 849h333l4 345v74l4 117q-34 -39 -298 -467q-43 -57 -43 -69z" />
<glyph unicode="5" horiz-adv-x="1453" d="M80 399q0 125 130 182q20 13 78 13q95 0 172 -113q100 -86 225 -86h31q119 0 224 151q44 89 44 216q0 226 -134 260q0 11 -83 21h-21q-69 0 -277 -65q-39 -8 -108 -8q-86 0 -160 108q-17 46 -17 73v22q0 57 104 661q59 126 177 126h661q130 0 182 -147l8 -44 q0 -131 -134 -190q-38 -13 -116 -13h-428l-22 -142q68 13 143 13q231 0 436 -173q178 -181 178 -476v-65q0 -412 -359 -640q-160 -82 -307 -82h-17q-362 0 -584 299q-26 58 -26 99z" />
<glyph unicode="6" horiz-adv-x="1582" d="M80 749q0 316 389 878q257 328 329 328q0 9 52 9h13q111 0 172 -125q13 -43 13 -78q0 -79 -86 -160q-113 -118 -221 -273l31 5h99q254 0 476 -203q155 -165 155 -428v-13q0 -444 -454 -640q-149 -48 -255 -48q-272 0 -484 160q-229 196 -229 588zM469 663 q0 -199 212 -294q41 -13 108 -18q192 0 294 216l13 83v43q0 157 -169 264q-75 34 -147 34q-205 0 -298 -220q-13 -46 -13 -78v-30z" />
<glyph unicode="7" horiz-adv-x="1457" d="M80 1756v31q0 52 61 125q67 52 159 52h835q177 0 225 -121q17 -37 17 -78q0 -58 -91 -238l-683 -1444q-71 -82 -156 -82h-8q-139 0 -190 152l-5 43q0 68 152 359l475 1016h-601q-134 0 -186 151z" />
<glyph unicode="8" horiz-adv-x="1427" d="M80 611q0 221 169 415q-126 149 -126 354q0 320 286 502q154 82 302 82q270 0 458 -208q134 -168 134 -354v-43q0 -178 -125 -337q169 -176 169 -411v-5q0 -294 -260 -488q-172 -117 -350 -117h-34q-339 0 -550 320q-73 150 -73 290zM473 602q0 -119 152 -207 q43 -18 86 -18h5q148 0 229 169l8 52v21q0 182 -199 238h-47q-154 0 -229 -207zM517 1372q0 -101 99 -139q29 -26 100 -34q100 0 177 99q13 17 21 78l-4 4v22q0 134 -151 182l-31 4q-91 0 -181 -100q-30 -49 -30 -103v-13z" />
<glyph unicode="9" horiz-adv-x="1582" d="M80 1264v13q0 443 454 639q150 48 255 48q272 0 484 -160q229 -196 229 -588q0 -316 -389 -878q-256 -328 -328 -328q0 -9 -52 -9h-13q-112 0 -173 126q-13 42 -13 77q0 79 86 160q114 118 221 273l-30 -5h-100q-253 0 -475 204q-156 165 -156 428zM487 1272 q0 -157 168 -263q75 -35 147 -35q205 0 298 221q13 46 13 77v31q0 199 -211 294q-42 13 -108 17q-193 0 -294 -216l-13 -82v-44z" />
<glyph unicode=":" horiz-adv-x="563" d="M80 180v43q0 117 136 180l39 9h40q118 0 179 -140l9 -75q0 -152 -180 -197h-30q-125 0 -184 140zM80 848v44q0 117 136 179l39 9h40q118 0 179 -140l9 -75q0 -152 -180 -197h-30q-125 0 -184 140z" />
<glyph unicode=";" horiz-adv-x="661" d="M80 -264q108 517 128 580q62 104 180 104q102 0 168 -124l8 -60v-16q0 -55 -92 -216q-168 -363 -192 -372q-44 -20 -60 -20h-20q-100 0 -120 124zM178 824v44q0 117 136 179l39 9h40q118 0 179 -140l9 -75q0 -152 -180 -197h-30q-125 0 -184 140z" />
<glyph unicode="&#x3c;" horiz-adv-x="1414" d="M80 524v225q0 61 78 134q88 43 623 260q307 129 358 129l78 -17q117 -70 117 -169q0 -86 -52 -142q-4 -34 -398 -182l-302 -130l553 -224q199 -59 199 -212l-4 -39q-52 -156 -186 -156h-9l-39 5q-59 17 -890 358q-126 65 -126 160z" />
<glyph unicode="=" horiz-adv-x="1241" d="M80 792v3q0 90 93 121l52 3h795q112 0 132 -104l3 -26q0 -48 -42 -90q-28 -30 -101 -30h-802q-100 0 -127 95zM86 1229v3q0 90 93 121l52 3h795q112 0 132 -104l3 -26q0 -48 -42 -90q-28 -30 -101 -30h-802q-100 0 -127 95z" />
<glyph unicode="&#x3e;" horiz-adv-x="1414" d="M80 196q0 153 199 212l553 224l-302 130q-394 148 -398 182q-52 56 -52 142q0 99 117 169l78 17q51 0 358 -129q535 -217 623 -260q78 -73 78 -134v-225q0 -95 -126 -160q-831 -341 -890 -358l-39 -5h-9q-134 0 -186 156z" />
<glyph unicode="?" horiz-adv-x="1383" d="M80 1497q0 102 143 277q192 190 441 190q348 0 553 -307q86 -146 86 -307v-34q0 -261 -255 -450q-76 -56 -216 -104h-8v-30q0 -165 -134 -221l-70 -8q-110 0 -173 116q-17 39 -17 83v211q0 151 143 204q295 98 302 116q35 44 35 91v35q0 136 -173 203l-78 9 q-150 0 -216 -186q-66 -91 -181 -91q-105 0 -169 125q-13 39 -13 78zM430 200v4q0 141 147 191l43 8q147 0 199 -160l5 -43q0 -139 -152 -194l-39 -5h-17q-121 0 -177 139z" />
<glyph unicode="@" horiz-adv-x="2144" d="M80 984v20q0 381 284 684q309 296 684 296h48q376 0 696 -304l80 -96q192 -278 192 -584v-12q0 -315 -200 -596q-122 -116 -248 -116v4l-4 -4q-212 0 -320 204q-20 48 -20 96l-56 -32q-96 -44 -216 -44h-32q-217 0 -344 228q-36 93 -36 188q0 269 248 456q128 84 248 84 h32q117 0 236 -88l4 4q25 72 88 72h8q79 0 92 -96l-116 -748v-12q0 -72 100 -132q37 -16 68 -16h20q132 0 220 232q35 65 60 204l8 72h-4l4 4v72l-4 4v4h4l-4 4v8q0 187 -136 412q-270 368 -692 368q-423 0 -696 -372q-136 -218 -136 -476v-24l4 -4v-4h-4q7 -143 92 -332 q47 -102 192 -248q157 -119 272 -156q135 -44 240 -44h4l4 -4h4l4 4l4 -4v4l4 -4q147 0 328 60h16q72 -14 72 -72v-12q0 -75 -164 -104q-109 -32 -240 -32q-456 0 -784 380q-208 288 -208 604zM780 912q0 -127 100 -192q50 -28 104 -28q220 0 276 176q36 89 36 164v28 q0 144 -140 196l-60 8q-149 0 -264 -172q-52 -94 -52 -180z" />
<glyph unicode="A" horiz-adv-x="1872" d="M80 196v8q0 47 192 544q353 967 396 1056q107 160 268 160q201 0 300 -232q552 -1488 552 -1504l4 -32q0 -113 -112 -176q-43 -20 -80 -20h-4q-146 0 -200 168l-64 180h-792q-95 -297 -156 -316q-62 -32 -92 -32h-4q-147 0 -200 136zM688 740h492q-3 25 -244 668h-4z" />
<glyph unicode="B" horiz-adv-x="1460" d="M80 208v1540q0 149 128 204q44 12 92 12h408q210 0 400 -180q156 -178 156 -400q0 -156 -100 -324q216 -186 216 -456q0 -345 -344 -540q-150 -64 -252 -64h-496q-148 0 -200 140zM472 392h272q185 0 240 176l4 36q0 149 -176 208h-340v-420zM472 1208h228q123 0 168 148 l4 32q-26 180 -180 180l-72 4h-148v-364z" />
<glyph unicode="C" d="M80 984q0 431 348 748q288 232 636 232q204 0 372 -80q84 -75 84 -156q0 -152 -168 -200h-36l-172 36l-84 8q-283 0 -480 -252q-108 -164 -108 -340q0 -287 252 -480q160 -108 336 -108q88 0 240 44l28 4q148 0 196 -168v-40q0 -55 -44 -116q-45 -61 -236 -100 q-102 -16 -184 -16h-4q-370 0 -668 268q-308 305 -308 716z" />
<glyph unicode="D" horiz-adv-x="1744" d="M80 256v1420q0 198 112 236q0 33 548 52l24 -4l36 4q369 0 648 -336q216 -291 216 -648q0 -479 -368 -800q-236 -180 -492 -180h-516q-151 0 -200 148q-8 39 -8 108zM476 392h316q262 0 420 308q60 151 60 280q0 341 -276 536q-112 56 -212 56l-308 -12v-1168z" />
<glyph unicode="E" horiz-adv-x="1172" d="M80 196v1560q0 179 192 208h620q144 0 196 -148l4 -40v-24q0 -119 -148 -176l-36 -4h-436v-388l8 -8h424q147 0 188 -172v-36q0 -118 -136 -172q-21 -12 -96 -12h-388v-392h424q116 0 176 -108q20 -34 20 -80v-16q0 -127 -140 -180l-56 -8h-608q-146 0 -196 132 q-12 26 -12 64z" />
<glyph unicode="F" horiz-adv-x="1200" d="M80 176v1584q0 166 172 200l48 4h624q135 0 188 -148l8 -44q0 -135 -136 -192l-52 -8h-460v-336h356q143 0 196 -140l8 -48v-12q0 -135 -148 -188l-24 -4h-388v-644q0 -139 -144 -192l-48 -8q-133 0 -188 128z" />
<glyph unicode="G" horiz-adv-x="2004" d="M80 984q0 460 396 784q282 196 600 196q407 0 684 -344q24 -54 24 -88v-24q0 -126 -152 -180l-52 -4q-95 0 -184 120q-144 128 -340 128q-210 0 -416 -180q-139 -163 -160 -320l-8 -92q0 -284 252 -476q164 -112 344 -112q258 0 404 228q32 59 32 76h-336 q-146 0 -204 152l-12 60q0 156 172 212l44 4h536q183 0 220 -224v-60q0 -436 -396 -712q-212 -128 -468 -128q-420 0 -748 348q-232 293 -232 636z" />
<glyph unicode="H" horiz-adv-x="1680" d="M80 236v1512q0 163 148 208l48 8q130 0 188 -136l8 -48v-596l8 -8h724v584q0 146 148 196l48 8q143 0 192 -156l4 -20v-792l4 -20l-4 -24v-760q0 -137 -152 -188l-40 -4q-137 0 -188 136q-12 24 -12 84v564h-732v-600q0 -125 -152 -180l-40 -4q-137 0 -192 144z" />
<glyph unicode="I" horiz-adv-x="556" d="M80 244v1480q0 167 108 216q46 22 88 24q136 0 188 -140q12 -23 12 -104v-1500q0 -168 -148 -212q-15 -8 -48 -8q-137 0 -188 140q-12 23 -12 104z" />
<glyph unicode="J" horiz-adv-x="1140" d="M80 316q0 141 164 192l40 4q78 0 176 -88l60 -12h36q100 23 100 72v1272q0 154 124 208q34 16 80 16q143 0 196 -156l4 -44v-1304q0 -187 -160 -336q-166 -136 -368 -136q-253 0 -420 196q-32 44 -32 116z" />
<glyph unicode="K" horiz-adv-x="1588" d="M80 236v1524q0 163 148 208q16 8 44 8q149 0 196 -152l4 -20v-676h8q581 753 632 804q56 44 136 44q115 0 176 -136l8 -56v-8q0 -86 -112 -208l-448 -572q564 -640 612 -704q24 -55 24 -96q0 -114 -116 -176q-43 -20 -84 -20q-112 0 -244 184l-588 668h-4v-660 q0 -138 -156 -188l-44 -4q-103 0 -168 108q-24 38 -24 128z" />
<glyph unicode="L" horiz-adv-x="1164" d="M80 208v1556q0 141 152 196l44 4q152 0 196 -176v-1396h416q145 0 196 -164v-32q0 -151 -172 -196h-624q-148 0 -200 140z" />
<glyph unicode="M" horiz-adv-x="2260" d="M80 192q240 1624 256 1656q69 116 180 116q163 0 228 -244l384 -976h4q404 1071 436 1132q70 88 164 88q135 0 192 -152l256 -1612v-16q0 -126 -152 -180l-44 -4q-132 0 -188 144l-140 868h-4q-320 -853 -360 -932q-71 -80 -156 -80q-156 0 -208 180l-324 828h-4 q-120 -799 -140 -888q-63 -120 -184 -120q-133 0 -188 144z" />
<glyph unicode="N" horiz-adv-x="1844" d="M80 172v1608q0 131 160 180l44 4q108 0 232 -184l856 -1032v1020q0 147 164 192l32 4q132 0 188 -144l8 -68v-1540q0 -154 -140 -204l-64 -8q-112 0 -224 172l-864 1044v-1000q0 -162 -148 -208q-15 -8 -48 -8q-143 0 -192 152z" />
<glyph unicode="O" horiz-adv-x="2124" d="M80 988q0 378 284 684q305 292 700 292q452 0 776 -380q204 -280 204 -600v-4q0 -479 -416 -804q-270 -176 -564 -176h-4q-461 0 -776 384q-204 271 -204 604zM472 980q0 -275 236 -468q163 -120 356 -120q319 0 508 296q80 137 80 300q0 310 -300 508q-151 76 -292 76 q-222 0 -408 -168q-180 -186 -180 -424z" />
<glyph unicode="P" horiz-adv-x="1460" d="M80 232v1512q0 162 136 208q24 12 84 12h468q192 0 388 -152q224 -201 224 -488q0 -328 -296 -536q-146 -100 -404 -100h-208v-496q0 -137 -152 -188l-40 -4q-139 0 -192 144q-8 34 -8 88zM472 1084h284q152 0 220 172q8 14 12 76q0 142 -152 220q-32 20 -176 20h-180 l-8 -8v-480z" />
<glyph unicode="Q" horiz-adv-x="2124" d="M80 988q0 372 276 676q307 300 708 300q452 0 776 -380q204 -280 204 -600v-4q0 -280 -160 -540v-4q160 -132 160 -236v-4q0 -151 -172 -196h-24q-106 0 -216 136l-28 24h-4q-252 -160 -536 -160h-4q-461 0 -776 384q-204 271 -204 604zM472 980q0 -275 236 -468 q163 -120 356 -120q115 0 252 56q-164 150 -164 232v16q0 136 144 188l48 8q113 0 232 -148l20 -16q56 137 56 256q0 285 -252 480q-163 108 -340 108q-222 0 -408 -168q-180 -188 -180 -424z" />
<glyph unicode="R" horiz-adv-x="1496" d="M80 232v1496q0 174 140 224q60 12 352 12h152q437 0 604 -412q32 -110 32 -192q0 -366 -312 -564q-76 -40 -88 -40v-4l244 -256q204 -199 204 -252q8 -16 8 -44q0 -140 -144 -192l-48 -8q-116 0 -200 124l-516 588h-36v-520q0 -137 -152 -188l-40 -4q-139 0 -192 144 q-8 34 -8 88zM472 1108h236q178 0 232 124q24 51 24 100v44q0 116 -136 180q-33 16 -112 16h-236l-8 -8v-456z" />
<glyph unicode="S" horiz-adv-x="1488" d="M80 302q0 144 160 193l43 4q40 0 198 -75q124 -31 214 -31q165 0 277 106q47 49 47 169v8q0 90 -152 114q-275 38 -398 82q-334 121 -334 491v20l-4 15q0 275 229 456q171 110 417 110q290 0 479 -165q47 -65 47 -137q0 -78 -86 -154q-64 -35 -109 -35q-57 0 -171 67 q-28 19 -156 31q-184 0 -234 -82q-23 -39 -23 -102q0 -105 54 -130q85 -42 433 -94q222 -66 327 -224q70 -114 70 -248v-66q0 -369 -378 -558q-175 -67 -327 -67q-342 0 -565 161q-58 68 -58 141z" />
<glyph unicode="T" horiz-adv-x="1340" d="M80 1768q0 131 136 184q24 12 84 12h760q137 0 192 -140l8 -56q0 -145 -160 -196h-232v-1348q0 -174 -148 -216q-15 -8 -48 -8q-137 0 -188 140q-12 20 -12 116v1316h-200q-136 0 -188 152z" />
<glyph unicode="U" horiz-adv-x="1648" d="M80 696v1044q0 172 148 216l48 8q142 0 192 -152q8 -39 8 -108v-1072q0 -143 220 -220q62 -20 132 -20q220 0 332 172q16 46 16 80v1120q0 140 148 192l48 8q132 0 188 -140l8 -48v-1140q0 -317 -320 -524q-196 -112 -420 -112h-16q-372 0 -620 300q-112 150 -112 396z " />
<glyph unicode="V" horiz-adv-x="1876" d="M80 1736v40q0 106 104 164q46 22 88 24q159 0 220 -216l444 -1096h4q443 1115 496 1224q70 88 164 88q135 0 192 -152l4 -44q0 -63 -132 -360q-445 -1120 -528 -1300q-80 -108 -196 -108h-8q-185 0 -264 272q-565 1381 -588 1464z" />
<glyph unicode="W" horiz-adv-x="2660" d="M80 1768q0 137 156 192l40 4q150 0 200 -176l320 -1192h4q324 1206 344 1260q65 108 184 108q192 0 228 -244l304 -1124h4q320 1190 344 1260q68 108 176 108q135 0 192 -152l4 -44q0 -42 -120 -472q-264 -985 -296 -1076q-108 -220 -304 -220q-279 0 -364 452l-164 600 h-4q-196 -749 -232 -840q-108 -212 -300 -212q-276 0 -360 436q-356 1287 -356 1332z" />
<glyph unicode="X" horiz-adv-x="1696" d="M80 200q0 78 144 264l388 576q-362 522 -440 652q-10 21 -16 80q0 109 116 172q45 20 80 20q133 0 228 -184l272 -392q318 482 360 524q62 52 132 52q135 0 192 -152l4 -44q0 -81 -108 -220l-344 -512l516 -768l12 -72q0 -151 -172 -196h-24q-121 0 -196 136l-376 548 l-436 -632q-61 -52 -136 -52q-130 0 -184 136z" />
<glyph unicode="Y" horiz-adv-x="1616" d="M80 1768q0 138 156 192l40 4q126 0 220 -168l308 -444h8q334 490 396 560q62 52 132 52q136 0 188 -148l8 -44q0 -89 -108 -220l-424 -608v-748q0 -143 -156 -192l-40 -4q-131 0 -188 140l-8 60v736q0 16 -192 284q-310 438 -328 480z" />
<glyph unicode="Z" horiz-adv-x="1632" d="M80 340q0 122 148 260l576 788l132 184h-664q-139 0 -188 156l-4 40q0 129 136 184q24 12 84 12h1020q151 0 200 -164v-36q0 -88 -136 -244l-824 -1128h800q132 0 188 -156l4 -44q0 -126 -144 -184l-56 -8h-952q-198 0 -296 204q-24 69 -24 136z" />
<glyph unicode="[" horiz-adv-x="766" d="M80 -76v2134l5 70q28 89 154 89h318q129 -16 129 -114v-15q0 -88 -110 -109h-208l-10 -10v-1966h149q139 -11 139 -108v-20q0 -24 -15 -50q-34 -60 -109 -60h-313q-129 0 -129 159z" />
<glyph unicode="\" horiz-adv-x="1240" d="M80 1990v12q0 33 12 52q48 68 104 68l4 -4v4l4 -4l4 4l4 -4l4 4h4q72 -21 96 -72l564 -1380q276 -652 280 -700l-8 -40q-33 -84 -116 -84h-4q-56 0 -100 48l-760 1848q-92 209 -92 248z" />
<glyph unicode="]" horiz-adv-x="766" d="M80 2088v15q0 98 129 114h318q125 0 154 -89l5 -70v-2134q0 -159 -129 -159h-313q-75 0 -109 60q-15 26 -15 50v20q0 97 139 108h149v1966l-10 10h-209q-109 21 -109 109z" />
<glyph unicode="^" horiz-adv-x="1288" d="M80 888v10q0 93 123 157q360 276 379 276l59 10q77 0 148 -64q289 -220 369 -271q50 -55 50 -113q0 -111 -143 -133h-15q-49 7 -281 143l-128 69l-389 -212h-24q-121 0 -148 128z" />
<glyph unicode="_" horiz-adv-x="1376" d="M80 -109q0 80 89 107l50 2h947q107 0 127 -91l3 -23q0 -42 -40 -79q-28 -28 -97 -28h-955q-96 0 -122 85l-2 25v2z" />
<glyph unicode="`" horiz-adv-x="703" d="M80 1879q0 83 105 101h4q45 0 298 -166q136 -60 136 -141l-9 -35q-24 -70 -100 -70h-9q-34 0 -324 184q-101 44 -101 127z" />
<glyph unicode="a" d="M80 770v24q0 394 256 627q176 144 408 144q214 0 452 -172q69 80 140 80q145 0 184 -152l4 -52v-1081q0 -141 -148 -184h-52q-84 0 -144 108q0 12 -8 12q-191 -120 -364 -120h-68q-240 0 -436 172q-224 228 -224 594zM436 783q0 -111 48 -211.5t135 -156t181 -55.5 t181 55.5t135 156t48 211.5t-49.5 212.5t-136.5 156.5t-178 55q-92 0 -179 -55t-136 -156.5t-49 -212.5z" />
<glyph unicode="b" d="M80 188v1624q0 120 108 172q26 16 84 16q57 0 124 -60q44 -57 44 -148v-376q220 149 420 149q232 0 408 -144q256 -233 256 -627v-24q0 -366 -224 -594q-196 -172 -436 -172h-68q-173 0 -364 120q-8 0 -8 -12q-60 -108 -144 -108h-52q-148 43 -148 184zM440 783 q0 -111 48 -211.5t134.5 -156t181.5 -55.5q94 0 181 55.5t135 156t48 211.5t-49 212.5t-136 156.5t-179 55t-179 -55t-136 -156.5t-49 -212.5z" />
<glyph unicode="c" horiz-adv-x="1368" d="M80 790q0 329 264 579q232 196 512 196q166 0 336 -76q92 -59 92 -164q0 -119 -140 -167l-48 -4l-152 44l-68 8h-36q-143 0 -272 -116q-128 -135 -128 -288v-52q0 -139 136 -283q128 -108 280 -108h4q88 0 212 52l44 4q126 0 172 -148v-51q0 -86 -112 -144 q-147 -68 -296 -68h-44q-327 0 -584 287q-172 227 -172 499z" />
<glyph unicode="d" d="M80 770v24q0 394 256 627q176 144 408 144q200 0 420 -149v376q0 91 44 148q67 60 124 60q58 0 84 -16q108 -52 108 -172v-1624q0 -141 -148 -184h-52q-84 0 -144 108q0 12 -8 12q-191 -120 -364 -120h-68q-240 0 -436 172q-224 228 -224 594zM436 783q0 -111 48 -211.5 t135 -156t181 -55.5q95 0 181.5 55.5t134.5 156t48 211.5t-49 212.5t-136 156.5t-179 55t-179 -55t-136 -156.5t-49 -212.5z" />
<glyph unicode="e" horiz-adv-x="1552" d="M80 794q0 233 156 459q249 312 612 312q200 0 400 -152q224 -213 224 -499v-32q0 -138 -64 -187q-45 -48 -160 -48h-788q59 -162 192 -236q95 -52 188 -52q150 0 268 96q48 32 96 32h8q129 0 172 -136l4 -36v-16q0 -159 -356 -275q-93 -20 -156 -20h-56q-261 0 -500 212 q-240 247 -240 578zM500 1006h600q-38 111 -120 160q-71 40 -132 40h-16q-198 0 -332 -200z" />
<glyph unicode="f" horiz-adv-x="968" d="M80 1282v12q0 118 136 163l20 4h24v28q0 260 180 403q115 84 276 84q119 0 168 -131l4 -40v-20q0 -98 -112 -152q-31 -11 -112 -20q-48 -34 -48 -124v-4l4 -24h84q119 0 168 -127l8 -52q0 -125 -144 -172l-60 -4h-56v-882q0 -170 -112 -212q-30 -12 -64 -12h-16 q-107 0 -156 120q-12 24 -12 84v902h-4q-110 0 -168 120z" />
<glyph unicode="g" horiz-adv-x="1613" d="M80 765q0 473 331 708q163 92 336 92q211 0 443 -164l4 4q61 100 155 100q67 0 128 -52q56 -46 56 -180v-1112q0 -383 -32 -383q-11 -68 -116 -188q-232 -216 -563 -216q-371 0 -550 140q-92 86 -92 188q0 127 136 176l43 4h4q100 0 160 -108q127 -40 256 -40h8l16 -4 l15 4h36q163 0 284 116q40 44 40 108l-4 59v64h-4q-183 -115 -383 -115h-24q-343 0 -543 283q-140 214 -140 516zM436 783q0 -111 48 -211.5t135 -156t181 -55.5t181 55.5t135 156t48 211.5t-49.5 212.5t-136.5 156.5t-178 55q-92 0 -179 -55t-136 -156.5t-49 -212.5z" />
<glyph unicode="h" horiz-adv-x="1348" d="M80 164v1648q0 120 108 172q26 16 84 16q57 0 124 -60q44 -57 44 -148v-274q107 47 200 47h60q224 0 420 -204q128 -168 140 -311q8 -53 8 -152v-702q0 -155 -156 -188l-28 -4q-125 0 -172 148l-4 72v750q0 147 -160 224q-43 12 -72 12h-8q-152 0 -220 -172 q-12 -37 -12 -84v-766q0 -134 -140 -180l-36 -4q-126 0 -176 136z" />
<glyph unicode="i" horiz-adv-x="520" d="M80 208v1169q0 141 144 184l40 4q88 0 148 -88q28 -36 28 -140v-1121q0 -153 -112 -200q-31 -12 -56 -12h-24q-105 0 -156 120q-12 24 -12 84zM80 1800q0 47 24 90.5t67 66.5t89 23q45 0 88 -23t67.5 -66.5t24.5 -90.5t-23.5 -89.5t-66.5 -66.5t-90 -24t-90 24 t-66.5 66.5t-23.5 89.5z" />
<glyph unicode="j" horiz-adv-x="520" d="M80 -192v1569q0 141 144 184l40 4q88 0 148 -88q28 -36 28 -140v-1521q0 -153 -112 -200q-31 -12 -56 -12h-24q-105 0 -156 120q-12 24 -12 84zM80 1800q0 47 24 90.5t67 66.5t89 23q45 0 88 -23t67.5 -66.5t24.5 -90.5t-23.5 -89.5t-66.5 -66.5t-90 -24t-90 24 t-66.5 66.5t-23.5 89.5z" />
<glyph unicode="k" horiz-adv-x="1432" d="M80 220v1592q0 120 108 172q26 16 84 16q57 0 124 -60q44 -57 44 -148v-882h4q0 41 208 248q301 333 396 419q51 20 88 20h4q122 0 172 -136l4 -52q0 -73 -104 -172l-364 -391q484 -569 484 -583q20 -40 20 -63v-40q0 -74 -96 -140q-44 -16 -72 -16h-20q-95 0 -204 156 q-478 564 -512 618l-4 20h-4v-586q0 -153 -120 -200l-48 -8h-24q-114 0 -164 140z" />
<glyph unicode="l" horiz-adv-x="520" d="M80 220v1592q0 120 108 172q26 16 84 16q57 0 124 -60q44 -57 44 -148v-1580q0 -153 -120 -200l-48 -8h-24q-114 0 -164 140z" />
<glyph unicode="m" horiz-adv-x="2304" d="M80 232v1145q0 144 152 184l20 4q82 0 148 -68q160 68 304 68q244 0 448 -164q189 164 440 164q174 0 340 -88q199 -116 268 -319q24 -74 24 -120v-48l-8 -44v-762q0 -138 -148 -180h-40q-117 0 -164 136l-4 36v758q-16 179 -56 200q-28 54 -140 92l-76 7 q-164 0 -240 -155q-11 -39 -16 -116l-4 -16v-758q0 -143 -152 -184h-48q-84 0 -144 108q-16 38 -16 132v686q-10 150 -28 164q-71 139 -240 139q-153 0 -232 -135q-20 -36 -28 -164v-698q0 -147 -108 -196q-43 -16 -76 -16q-124 0 -172 144z" />
<glyph unicode="n" horiz-adv-x="1416" d="M80 160v1209q0 124 136 168l36 4h16q55 0 120 -52q151 76 320 76q281 0 488 -212q140 -160 140 -347l-8 -76v-726q0 -153 -136 -196l-32 -4h-24q-114 0 -164 140l-4 76v714q-8 128 -28 168q-85 131 -220 131h-24q-177 0 -244 -167l-16 -124v-754q0 -147 -156 -184h-44 q-84 0 -144 108z" />
<glyph unicode="o" horiz-adv-x="1608" d="M80 782q0 361 284 623q180 125 248 128q84 32 196 32q360 0 604 -351q116 -213 116 -416v-32q0 -346 -284 -606q-210 -156 -408 -156h-64q-246 0 -476 224q-216 248 -216 554zM440 782q0 -254 212 -383q71 -40 152 -40h4q178 0 296 180q68 117 68 243q0 265 -236 400 q-68 24 -120 24h-20q-174 0 -292 -184q-64 -108 -64 -228v-12z" />
<glyph unicode="p" d="M80 -243v1624q0 141 148 184h52q84 0 144 -108q0 -12 8 -12q191 120 364 120h68q240 0 436 -172q224 -228 224 -594v-24q0 -394 -256 -627q-176 -144 -408 -144q-200 0 -420 149v-376q0 -91 -44 -148q-67 -60 -124 -60q-58 0 -84 16q-108 52 -108 172zM440 786 q0 -111 49 -212.5t136 -156.5t179 -55t179 55t136 156.5t49 212.5t-48 211.5t-135 156t-181 55.5q-95 0 -181.5 -55.5t-134.5 -156t-48 -211.5z" />
<glyph unicode="q" d="M80 775v24q0 366 224 594q196 172 436 172h68q173 0 364 -120q8 0 8 12q60 108 144 108h52q148 -43 148 -184v-1624q0 -120 -108 -172q-26 -16 -84 -16q-57 0 -124 60q-44 57 -44 148v376q-220 -149 -420 -149q-232 0 -408 144q-256 233 -256 627zM436 786 q0 -111 49 -212.5t136 -156.5t179 -55t179 55t136 156.5t49 212.5t-48 211.5t-134.5 156t-181.5 55.5q-94 0 -181 -55.5t-135 -156t-48 -211.5z" />
<glyph unicode="r" horiz-adv-x="936" d="M80 232v1097q0 155 96 200q46 24 80 24q75 0 140 -60h4q165 72 276 72q127 0 176 -140l4 -36q0 -143 -156 -179q-106 0 -216 -84q-44 -41 -44 -92v-846q0 -134 -136 -180l-32 -4h-24q-116 0 -164 144z" />
<glyph unicode="s" horiz-adv-x="1196" d="M80 315v4q0 133 160 172h16q89 0 160 -84q72 -48 176 -48h16q101 0 144 84q8 16 8 44q0 100 -188 132q-242 72 -296 131q-116 75 -172 256l-8 88v16q0 235 244 387q119 68 300 68q231 0 368 -160q32 -49 32 -100q0 -111 -112 -163l-56 -16q-82 0 -164 72l-84 12 q-172 -15 -172 -112q0 -68 144 -112q282 -76 356 -144q102 -73 152 -255q12 -37 12 -84v-44q0 -196 -196 -359q-156 -100 -312 -100q-336 0 -508 228q-20 47 -20 87z" />
<glyph unicode="t" horiz-adv-x="896" d="M80 1380v12q0 121 148 167h48l8 8v148q0 129 140 176l36 4q121 0 172 -128l8 -56v-152q121 0 172 -135l4 -40q0 -130 -144 -176l-32 -4v-1024q0 -137 -148 -180h-40q-122 0 -168 148v1056h-24q-72 0 -124 48q-56 54 -56 128z" />
<glyph unicode="u" horiz-adv-x="1348" d="M80 671v702q0 155 156 188l28 4q125 0 172 -148l4 -72v-750q0 -147 160 -224q43 -12 72 -12h8q152 0 220 172q12 37 12 84v766q0 134 140 180l36 4q125 0 176 -136l4 -24v-822q0 -263 -248 -471q-171 -108 -312 -108h-60q-224 0 -420 204q-128 168 -140 311q-8 52 -8 152 z" />
<glyph unicode="v" horiz-adv-x="1536" d="M80 1361v44q0 86 112 148l68 12q146 0 196 -212q276 -786 308 -894h8q256 756 352 1018q63 88 160 88q105 0 164 -120l8 -48v-16q0 -50 -112 -351q-268 -790 -300 -858q-113 -168 -256 -168h-28q-203 0 -300 247z" />
<glyph unicode="w" horiz-adv-x="2316" d="M80 1377v8q0 123 128 172l52 8q105 0 160 -108q20 -46 280 -926h4l284 938q60 96 172 96q131 0 180 -136l268 -898q9 0 100 323l192 619q60 92 160 92q118 0 168 -132l8 -52q-15 -81 -224 -762q-108 -375 -144 -451q-100 -164 -240 -164h-32q-177 0 -272 236l-164 554h-4 q-152 -519 -192 -618q-101 -172 -244 -172h-32q-163 0 -260 204q-348 1131 -348 1169z" />
<glyph unicode="x" horiz-adv-x="1412" d="M80 180q0 74 116 223l292 423l-336 491l-12 72q0 122 140 172l40 4q117 0 208 -172l176 -251h4q235 346 260 371q58 52 124 52q130 0 176 -144l4 -40q0 -65 -92 -183l-256 -372l392 -575q16 -43 16 -75q0 -105 -120 -164l-48 -8h-24q-104 0 -188 156l-248 351l-316 -455 q-56 -52 -124 -52h-16q-60 0 -116 52q-52 56 -52 124z" />
<glyph unicode="y" horiz-adv-x="1592" d="M80 1352v16q0 133 140 184l36 4h24q144 0 200 -224q160 -427 312 -860q16 20 116 312l256 688q50 66 124 84l28 4q108 0 172 -100q21 -39 24 -88q0 -53 -132 -392l-536 -1476q-50 -66 -124 -84l-28 -4q-108 0 -172 100q-21 39 -24 88q0 53 104 341l-108 263 q-396 1068 -412 1144z" />
<glyph unicode="z" horiz-adv-x="1320" d="M80 283q0 82 72 164l540 759h-380q-232 0 -232 191q0 94 112 156q44 12 92 12h748q125 0 176 -120l12 -64q0 -70 -120 -215l-572 -807h524q133 0 180 -127q8 -18 8 -52v-8q0 -123 -148 -168l-80 -4h-580q-254 0 -320 152q-32 57 -32 131z" />
<glyph unicode="{" horiz-adv-x="1839" d="M80 202q0 66 75 162l1020 1426q135 162 296 162q207 0 277 -229l8 -119v-1035l3 -371q0 -114 -118 -182l-75 -16q-140 0 -194 146q-8 34 -8 87v127h-727l-225 -309q-72 -51 -130 -51q-148 0 -198 158zM894 719h470v656q-11 -7 -470 -652v-4z" />
<glyph unicode="|" horiz-adv-x="412" d="M80 -6v2004q0 89 76 128l36 8h32q45 0 92 -64q16 -36 16 -88v-1964q0 -111 -72 -148l-52 -12q-39 0 -88 32q-40 43 -40 104z" />
<glyph unicode="}" horiz-adv-x="1839" d="M80 198l4 371v1035l8 119q70 229 276 229q162 0 297 -162l1019 -1426q75 -96 75 -162l-3 -44q-51 -158 -198 -158q-58 0 -130 51l-226 309h-727v-127q0 -53 -8 -87q-53 -146 -193 -146l-75 16q-119 68 -119 182zM475 719h470v4q-458 645 -470 652v-656z" />
<glyph unicode="~" horiz-adv-x="1648" d="M80 842q7 95 172 288q167 152 316 152h44q208 0 404 -236l32 -12h16q106 0 244 128q56 68 120 68l4 -4l4 4l4 -4v4q124 -26 124 -116l4 -28q-13 -92 -152 -252q-150 -152 -368 -152q-161 0 -336 180q-51 72 -116 72q-89 -9 -264 -148q-53 -76 -124 -76h-4 q-104 0 -124 132z" />
<glyph unicode="&#xa1;" horiz-adv-x="553" d="M80 -194v1063q0 113 117 173q38 17 82 17h4q95 0 160 -95q30 -39 30 -151v-985q0 -181 -164 -221l-26 -4q-151 0 -199 160zM80 1375q0 95 91 160q44 30 104 30h8q135 0 186 -160l4 -43q0 -142 -160 -195l-34 -4q-139 0 -195 151z" />
<glyph unicode="&#xa2;" horiz-adv-x="1368" d="M80 790q0 329 264 579q180 152 389 186v213q0 58 49 83l23 5h21q29 0 60 -41q10 -24 10 -57v-194q146 -8 296 -75q92 -59 92 -164q0 -119 -140 -167l-48 -4l-152 44l-68 8h-36q-143 0 -272 -116q-128 -135 -128 -288v-52q0 -139 136 -283q128 -108 280 -108h4 q88 0 212 52l44 4q126 0 172 -148v-51q0 -86 -112 -144q-139 -64 -280 -68v-186q0 -72 -47 -96l-33 -8q-25 0 -57 21q-26 28 -26 67v209q-265 39 -481 280q-172 227 -172 499z" />
<glyph unicode="&#xa3;" horiz-adv-x="1396" d="M80 184v24q0 142 152 200v440l-4 4q-112 42 -112 156q0 70 72 120l44 24v276l-4 60q0 200 200 368q169 124 376 124q267 0 448 -192q40 -55 40 -116q0 -153 -156 -204l-48 -4q-82 0 -172 84q-42 21 -112 28q-107 0 -164 -80l-4 -16v-328h292q76 0 128 -88l16 -60 q0 -61 -48 -112q-41 -44 -128 -44h-260v-388q105 -15 196 -52h36q67 0 232 40q158 0 212 -160l4 -48q0 -120 -136 -188q-206 -52 -340 -52q-85 0 -236 56l-60 4h-12q-77 0 -200 -44l-52 -8q-150 0 -200 176z" />
<glyph unicode="&#xa4;" horiz-adv-x="1264" d="M80 928v8q0 57 116 156q36 36 36 44q-60 114 -60 224q0 107 60 228v4q-152 133 -152 188v24q0 72 92 104l28 4h16q47 0 180 -148l4 -4h8q109 60 228 60q109 0 220 -60h4q146 148 168 148l36 4h12q69 0 104 -88l4 -32v-8q0 -58 -136 -176l-16 -20v-4q60 -110 60 -224 q0 -107 -60 -228v-4q148 -133 148 -172l4 -36v-4q0 -73 -100 -108h-28q-57 0 -156 116q-36 36 -44 36q-114 -60 -224 -60q-104 0 -228 60h-4q-133 -152 -188 -152h-20q-73 0 -108 88zM416 1348q0 -134 152 -196l48 -8h32q127 0 196 156l8 60q0 149 -164 212l-56 8 q-79 0 -148 -60q-68 -67 -68 -148v-24z" />
<glyph unicode="&#xa5;" horiz-adv-x="1632" d="M80 575v16q0 117 132 160l17 3h383v178h-332q-152 0 -197 122l-3 41v16q0 117 132 160l17 3h153q-273 387 -290 426l-12 68q0 138 156 192l40 4q126 0 220 -168l308 -444h8q334 490 396 560q62 52 132 52q136 0 188 -148l8 -44q0 -89 -108 -220l-194 -278h165 q69 0 133 -88q20 -51 20 -85q0 -92 -95 -149q-33 -20 -109 -20h-344v-178h395q69 0 133 -88q20 -51 20 -85q0 -92 -95 -149q-33 -20 -109 -20h-344v-216q0 -143 -156 -192l-40 -4q-131 0 -188 140l-8 60v212h-332q-152 0 -197 122z" />
<glyph unicode="&#xa6;" horiz-adv-x="412" d="M80 -24v824q0 89 76 128l36 8h32q45 0 92 -64q16 -36 16 -88v-784q0 -111 -72 -148l-52 -12q-39 0 -88 32q-40 43 -40 104zM80 1164v824q0 89 76 128l36 8h32q45 0 92 -64q16 -36 16 -88v-784q0 -111 -72 -148l-52 -12q-39 0 -88 32q-40 43 -40 104z" />
<glyph unicode="&#xa7;" horiz-adv-x="160" />
<glyph unicode="&#xa8;" horiz-adv-x="1002" d="M80 2150q0 42 21 80t59 58t78 20t77.5 -20t59 -58t21.5 -80q0 -41 -21 -78.5t-58.5 -58.5t-78.5 -21t-78.5 21t-58.5 58.5t-21 78.5zM606 2150q0 41 21.5 79t59 58.5t77.5 20.5t77.5 -20.5t59 -58.5t21.5 -79t-20.5 -78.5t-58.5 -58.5t-79 -21t-78.5 21t-58.5 58.5 t-21 78.5z" />
<glyph unicode="&#xa9;" horiz-adv-x="2160" d="M80 984v4h4l-4 4v16l4 4v4h-4l4 4v20q0 289 212 580q326 380 788 380q316 0 596 -200q400 -321 400 -808q0 -352 -248 -652q-310 -340 -788 -340l-4 4v-4l-4 4h-8q-286 0 -588 228q-188 182 -212 252q-144 242 -144 476v20zM161 1023q0 -574 538 -860q198 -82 387 -82 q345 0 626 251q287 281 287 680q0 423 -368 726q-258 181 -551 181q-479 0 -785 -439q-129 -235 -129 -427v-6l-5 -6v-6h5l-5 -6v-6zM535 1008q0 272 223 468q162 114 298 124q29 5 79 5q139 0 257 -62q43 -39 43 -82v-14q0 -67 -79 -101l-29 -5q-17 0 -118 34q-42 7 -76 7 h-3q-186 0 -307 -163q-65 -100 -65 -207q0 -185 161 -309q101 -65 211 -65h5q71 0 163 36l27 5q72 0 108 -82l2 -17v-26q0 -45 -55 -84q-117 -55 -250 -55q-263 0 -451 209q-144 176 -144 384z" />
<glyph unicode="&#xaa;" horiz-adv-x="810" d="M80 1607v10q0 177 115 282q80 65 184 65q96 0 203 -77q31 36 63 36q65 0 83 -68l2 -24v-487q0 -63 -67 -82h-23q-38 0 -65 48q0 6 -4 6q-86 -54 -163 -54h-31q-108 0 -196 77q-101 103 -101 268zM240 1612q0 -49 21.5 -94.5t60.5 -70.5t82 -25t82 25t60.5 70.5t21.5 94.5 q0 50 -22.5 96t-61.5 70.5t-80 24.5q-42 0 -81 -24.5t-61 -70.5t-22 -96z" />
<glyph unicode="&#xab;" horiz-adv-x="3116" d="M80 1743v27q0 31 16 68q63 114 170 114q59 -1 59 -8q72 -1 194 -193l833 -1174h8v1193q0 31 16 68q63 114 170 114h15q37 -2 43 -6l13 -2q4 -2 7 -3q17 -6 35 -20q57 -35 81 -84q28 -37 59 -86l833 -1174h8v1130q0 60 8 95q50 150 190 150l59 -8q139 -63 139 -182 l-4 -960v-474q0 -150 -79 -237q-90 -91 -198 -91q-151 0 -277 130q-51 60 -660 917l-65 92l-1 -337v-474q0 -150 -79 -237q-90 -91 -198 -91q-151 0 -277 130q-51 60 -660 917l-312 443q-146 177 -146 253z" />
<glyph unicode="&#xac;" horiz-adv-x="160" />
<glyph unicode="&#xad;" horiz-adv-x="1082" d="M80 802v16q0 117 132 160l17 3h620q69 0 133 -88q20 -51 20 -85q0 -92 -95 -149q-33 -20 -109 -20h-518q-152 0 -197 122z" />
<glyph unicode="&#xae;" horiz-adv-x="2160" d="M80 984v4h4l-4 4v16l4 4v4h-4l4 4v20q0 289 212 580q326 380 788 380q316 0 596 -200q400 -321 400 -808q0 -352 -248 -652q-310 -340 -788 -340l-4 4v-4l-4 4h-8q-286 0 -588 228q-188 182 -212 252q-144 242 -144 476v20zM161 1023q0 -574 538 -860q198 -82 387 -82 q345 0 626 251q287 281 287 680q0 423 -368 726q-258 181 -551 181q-479 0 -785 -439q-129 -235 -129 -427v-6l-5 -6v-6h5l-5 -6v-6zM724 578v896q0 111 74 134q15 7 51 7h259q110 -9 168 -31q218 -97 218 -322v-9q0 -197 -144 -305q-58 -42 -100 -53l268 -297 q15 -30 15 -53v-7q0 -74 -84 -104l-15 -2h-12q-59 0 -105 65l-341 369h-31v-328q0 -74 -87 -104l-24 -2h-9q-31 0 -72 36q-29 28 -29 110zM945 1085h117q150 0 195 81q19 44 19 92q0 96 -91 124q-44 12 -118 12h-122v-309z" />
<glyph unicode="&#xaf;" horiz-adv-x="160" />
<glyph unicode="&#xb0;" horiz-adv-x="732" d="M80 1692v20q0 148 164 244q61 24 104 24h24q106 0 188 -76q88 -92 88 -184v-20l4 -4l-4 -4v-16q0 -138 -156 -236q-64 -28 -112 -28h-32q-136 0 -232 144q-36 62 -36 136zM224 1680q0 -71 92 -116q16 -8 44 -8h20q68 0 116 88q8 16 8 44v16q0 101 -120 132h-36 q-84 0 -124 -116v-40z" />
<glyph unicode="&#xb1;" horiz-adv-x="160" />
<glyph unicode="&#xb2;" horiz-adv-x="1014" d="M80 1008v29q0 79 87 119q141 81 349 257q131 123 131 190v52q0 64 -87 107q-26 10 -61 12q-87 0 -152 -85l-23 -84q-46 -62 -104 -62h-13q-92 0 -124 86l-3 24q0 92 81 190q121 121 332 121q274 0 379 -202q32 -71 32 -145q0 -130 -93 -238q-47 -61 -208 -200l-107 -81 h315q95 0 123 -92v-19q0 -77 -109 -102h-630q-34 0 -81 33q-34 33 -34 90z" />
<glyph unicode="&#xb3;" horiz-adv-x="992" d="M80 1149q0 70 93 104l28 3h11q87 0 121 -84q0 -46 59 -59q55 -19 98 -19q60 0 121 29q45 28 45 99q0 56 -64 107q-56 26 -119 26q-92 32 -92 105q0 77 101 105q101 7 101 31q25 21 25 71v17q-21 83 -115 83q-78 0 -112 -86q-46 -52 -116 -52q-56 0 -100 50q-21 24 -21 55 v7q0 80 119 166q98 55 191 55h8l11 2q115 -9 180 -33q208 -87 208 -242v-22l3 -12q0 -66 -42 -145l-31 -45q121 -111 121 -250q0 -227 -259 -314q-62 -16 -121 -16h-76q-186 0 -317 121q-59 74 -59 143z" />
<glyph unicode="&#xb4;" horiz-adv-x="703" d="M80 1673q0 81 136 141q253 166 298 166h4q105 -18 105 -101t-101 -127q-290 -184 -324 -184h-9q-76 0 -100 70z" />
<glyph unicode="&#xb5;" horiz-adv-x="1406" d="M80 -243v1592l4 76q50 140 164 140h24l48 -8q120 -47 120 -200v-750q8 -105 26 -140q85 -131 220 -131h24q177 0 244 167l16 124v754q0 147 156 184h44q84 0 144 -108l12 -48v-1209q0 -124 -136 -168l-36 -4h-16q-55 0 -120 52q-151 -76 -320 -76q-138 0 -258 51v-278 q0 -91 -44 -148q-67 -60 -124 -60q-58 0 -84 16q-108 52 -108 172z" />
<glyph unicode="&#xb6;" horiz-adv-x="2230" d="M80 1324q0 287 224 488q196 152 388 152h1258q137 0 192 -140l8 -56q0 -145 -160 -196h-232v-1348q0 -174 -148 -216q-15 -8 -48 -8q-137 0 -188 140q-12 20 -12 116v1316h-152v-1340q0 -54 -8 -88q-53 -144 -192 -144l-40 4q-152 51 -152 188v496h-38q-258 0 -404 100 q-296 208 -296 536z" />
<glyph unicode="&#xb7;" horiz-adv-x="553" d="M80 984q0 143 160 195l35 4q138 0 194 -151l4 -61q0 -94 -90 -160q-45 -30 -104 -30h-9q-135 0 -186 160z" />
<glyph unicode="&#xb8;" horiz-adv-x="884" d="M80 -319q0 91 108 148l484 171h20q77 0 108 -79l4 -24v-8q0 -84 -108 -132q-369 -256 -396 -256l-52 -8l-4 4v-4q-164 30 -164 188z" />
<glyph unicode="&#xb9;" horiz-adv-x="623" d="M80 1857v7q0 46 64 86q32 14 99 14h138q122 0 149 -64q13 -13 13 -60v-844q0 -83 -100 -109l-26 -2h-14q-54 0 -98 55q-17 24 -17 63v745h-84q-74 0 -113 64q-11 21 -11 45z" />
<glyph unicode="&#xba;" horiz-adv-x="812" d="M80 1612q0 162 128 280q81 57 111 58q38 14 89 14q162 0 271 -158q53 -96 53 -187v-14q0 -156 -128 -273q-95 -70 -184 -70h-29q-110 0 -214 100q-97 112 -97 250zM242 1612q0 -114 95 -172q32 -18 69 -18h2q80 0 133 80q30 53 30 110q0 119 -106 180q-30 10 -54 10h-9 q-78 0 -131 -82q-29 -49 -29 -103v-5z" />
<glyph unicode="&#xbb;" horiz-adv-x="3116" d="M80 1762q0 119 139 182l59 8q140 0 190 -150q8 -35 8 -95v-1130h8l833 1174q31 49 59 86q24 49 81 84q18 14 35 20q3 1 7 3l13 2q6 4 43 6h15q107 0 170 -114q16 -37 16 -68v-1193h8l833 1174q122 192 194 193q0 7 59 8q107 0 170 -114q16 -37 16 -68v-27 q0 -76 -146 -253l-312 -443q-609 -857 -660 -917q-126 -130 -277 -130q-108 0 -198 91q-79 87 -79 237v474l-1 337l-65 -92q-609 -857 -660 -917q-126 -130 -277 -130q-108 0 -198 91q-79 87 -79 237v474z" />
<glyph unicode="&#xbc;" horiz-adv-x="2136" d="M80 65v24q0 54 124 160l1400 1400q300 305 316 308l40 8q96 -18 96 -96q0 -54 -124 -160q-1692 -1699 -1716 -1712l-36 -8q-78 0 -100 76zM285 1857v7q0 46 64 86q32 14 99 14h138q122 0 149 -64q13 -13 13 -60v-844q0 -83 -100 -109l-26 -2h-14q-54 0 -98 55 q-17 24 -17 63v745h-84q-74 0 -113 64q-11 21 -11 45zM1023 360l3 16v34q0 37 70 121l363 483q76 64 160 64h22q140 0 189 -155v-7l-6 -452h14q94 0 129 -85l3 -22q0 -56 -62 -92q-27 -17 -84 -17h-3l-3 -100v-40q0 -77 -98 -105l-28 -2h-14q-34 0 -82 33q-33 37 -33 78 l2 138h-208l-227 3q-54 10 -84 47q-17 23 -23 60zM1352 467h216l3 190v40l3 65q-23 -22 -194 -257q-28 -31 -28 -38z" />
<glyph unicode="&#xbd;" horiz-adv-x="2136" d="M80 65v24q0 54 124 160l1400 1400q300 305 316 308l40 8q96 -18 96 -96q0 -54 -124 -160q-1692 -1699 -1716 -1712l-36 -8q-78 0 -100 76zM324 1857v7q0 46 64 86q32 14 99 14h138q122 0 149 -64q13 -13 13 -60v-844q0 -83 -100 -109l-26 -2h-14q-54 0 -98 55 q-17 24 -17 63v745h-84q-74 0 -113 64q-11 21 -11 45zM1170 129v29q0 79 87 119q141 81 349 257q131 123 131 190v52q0 64 -87 107q-26 10 -61 12q-87 0 -152 -85l-23 -84q-46 -62 -104 -62h-13q-92 0 -124 86l-3 24q0 92 81 190q121 121 332 121q274 0 379 -202 q32 -71 32 -145q0 -130 -93 -238q-47 -61 -208 -200l-107 -81h315q95 0 123 -92v-19q0 -77 -109 -102h-630q-34 0 -81 33q-34 33 -34 90z" />
<glyph unicode="&#xbe;" horiz-adv-x="2144" d="M80 1148q0 70 93 104l28 3h11q87 0 121 -84q0 -46 59 -59q55 -19 98 -19q60 0 121 29q45 28 45 99q0 56 -64 107q-56 26 -119 26q-92 32 -92 105q0 77 101 105q101 7 101 31q25 21 25 71v17q-21 83 -115 83q-78 0 -112 -86q-46 -52 -116 -52q-56 0 -100 50q-21 24 -21 55 v7q0 80 119 166q98 55 191 55h8l11 2q115 -9 180 -33q208 -87 208 -242v-22l3 -12q0 -66 -42 -145l-31 -45q121 -111 121 -250q0 -227 -259 -314q-62 -16 -121 -16h-76q-186 0 -317 121q-59 74 -59 143zM88 65v24q0 54 124 160l1400 1400q300 305 316 308l40 8 q96 -18 96 -96q0 -54 -124 -160q-1692 -1699 -1716 -1712l-36 -8q-78 0 -100 76zM970 360l3 16v34q0 37 70 121l363 483q76 64 160 64h22q140 0 189 -155v-7l-6 -452h14q94 0 129 -85l3 -22q0 -56 -62 -92q-27 -17 -84 -17h-3l-3 -100v-40q0 -77 -98 -105l-28 -2h-14 q-34 0 -82 33q-33 37 -33 78l2 138h-208l-227 3q-54 10 -84 47q-17 23 -23 60zM1299 467h216l3 190v40l3 65q-23 -22 -194 -257q-28 -31 -28 -38z" />
<glyph unicode="&#xbf;" horiz-adv-x="1383" d="M80 216v35q0 260 255 449q77 57 216 104h9v30q0 165 134 221l69 9q111 0 173 -117q17 -39 17 -82v-212q0 -150 -142 -203q-295 -99 -303 -117q-35 -44 -35 -91v-35q0 -135 173 -203l78 -8q150 0 216 186q66 90 182 90q104 0 169 -125q12 -39 12 -78q0 -102 -142 -276 q-193 -190 -441 -190q-348 0 -554 307q-86 145 -86 306zM560 1366q0 140 151 195l39 4h17q122 0 178 -138l8 -61v-4q0 -141 -147 -190l-43 -9q-147 0 -199 160z" />
<glyph unicode="&#xc0;" horiz-adv-x="1872" d="M80 196v8q0 47 192 544q353 967 396 1056q107 160 268 160q201 0 300 -232q552 -1488 552 -1504l4 -32q0 -113 -112 -176q-43 -20 -80 -20h-4q-146 0 -200 168l-64 180h-792q-95 -297 -156 -316q-62 -32 -92 -32h-4q-147 0 -200 136zM520 2305q0 83 105 101h4 q45 0 298 -166q136 -60 136 -141l-9 -35q-24 -70 -100 -70h-9q-34 0 -324 184q-101 44 -101 127zM688 740h492q-3 25 -244 668h-4z" />
<glyph unicode="&#xc1;" horiz-adv-x="1872" d="M80 196v8q0 47 192 544q353 967 396 1056q107 160 268 160q201 0 300 -232q552 -1488 552 -1504l4 -32q0 -113 -112 -176q-43 -20 -80 -20h-4q-146 0 -200 168l-64 180h-792q-95 -297 -156 -316q-62 -32 -92 -32h-4q-147 0 -200 136zM688 740h492q-3 25 -244 668h-4z M724 2069q0 81 136 141q253 166 298 166h4q105 -18 105 -101t-101 -127q-290 -184 -324 -184h-9q-76 0 -100 70z" />
<glyph unicode="&#xc2;" horiz-adv-x="1872" d="M80 196v8q0 47 192 544q353 967 396 1056q107 160 268 160q201 0 300 -232q552 -1488 552 -1504l4 -32q0 -113 -112 -176q-43 -20 -80 -20h-4q-146 0 -200 168l-64 180h-792q-95 -297 -156 -316q-62 -32 -92 -32h-4q-147 0 -200 136zM570 2062v4q0 78 156 160 q124 100 192 100h32q75 0 192 -96q94 -54 136 -96q24 -42 24 -64v-12q0 -101 -112 -124h-16q-52 0 -160 84q-71 48 -84 48q-176 -132 -228 -132h-20q-73 0 -108 96zM688 740h492q-3 25 -244 668h-4z" />
<glyph unicode="&#xc3;" horiz-adv-x="1872" d="M80 196v8q0 47 192 544q353 967 396 1056q107 160 268 160q201 0 300 -232q552 -1488 552 -1504l4 -32q0 -113 -112 -176q-43 -20 -80 -20h-4q-146 0 -200 168l-64 180h-792q-95 -297 -156 -316q-62 -32 -92 -32h-4q-147 0 -200 136zM488 2092v27q0 110 233 206l55 4h27 q68 0 170 -82l59 -27q47 14 137 105l37 9q137 -31 137 -128v-18q0 -133 -256 -220l-59 -4q-61 0 -183 91l-51 18q-31 0 -128 -100l-32 -9h-18q-128 31 -128 128zM688 740h492q-3 25 -244 668h-4z" />
<glyph unicode="&#xc4;" horiz-adv-x="1872" d="M80 196v8q0 47 192 544q353 967 396 1056q107 160 268 160q201 0 300 -232q552 -1488 552 -1504l4 -32q0 -113 -112 -176q-43 -20 -80 -20h-4q-146 0 -200 168l-64 180h-792q-95 -297 -156 -316q-62 -32 -92 -32h-4q-147 0 -200 136zM507 2122q0 42 21 80t59 58t78 20 t77.5 -20t59 -58t21.5 -80q0 -41 -21 -78.5t-58.5 -58.5t-78.5 -21t-78.5 21t-58.5 58.5t-21 78.5zM688 740h492q-3 25 -244 668h-4zM1033 2122q0 41 21.5 79t59 58.5t77.5 20.5t77.5 -20.5t59 -58.5t21.5 -79t-20.5 -78.5t-58.5 -58.5t-79 -21t-78.5 21t-58.5 58.5 t-21 78.5z" />
<glyph unicode="&#xc5;" horiz-adv-x="1872" d="M80 196v8q0 47 192 544q353 967 396 1056q107 160 268 160q201 0 300 -232q552 -1488 552 -1504l4 -32q0 -113 -112 -176q-43 -20 -80 -20h-4q-146 0 -200 168l-64 180h-792q-95 -297 -156 -316q-62 -32 -92 -32h-4q-147 0 -200 136zM639 2119v20q0 148 164 244 q61 24 104 24h24q106 0 188 -76q88 -92 88 -184v-20l4 -4l-4 -4v-16q0 -138 -156 -236q-64 -28 -112 -28h-32q-136 0 -232 144q-36 62 -36 136zM688 740h492q-3 25 -244 668h-4zM767 2105q0 -81 104 -131q17 -9 49 -9h23q77 0 131 99q10 18 10 50v18q0 114 -136 150h-41 q-95 0 -140 -132v-45z" />
<glyph unicode="&#xc6;" horiz-adv-x="2507" d="M80 198q0 79 119 237q850 1273 901 1339q150 178 359 178l127 12h616q183 0 221 -162l4 -36q0 -124 -126 -181q-33 -16 -111 -16h-438v-131l4 -276h430q148 0 198 -87q24 -46 24 -83v-20q0 -119 -143 -166l-75 -4h-434v-403l7 -8h479q112 0 170 -122q15 -34 15 -71 q0 -138 -146 -190l-75 -8h-644q-152 0 -206 142l-8 99v119h-723q-12 -7 -197 -289q-68 -71 -158 -71q-116 0 -182 134zM862 719h486v723z" />
<glyph unicode="&#xc7;" d="M80 984q0 431 348 748q288 232 636 232q204 0 372 -80q84 -75 84 -156q0 -152 -168 -200h-36l-172 36l-84 8q-283 0 -480 -252q-108 -164 -108 -340q0 -287 252 -480q160 -108 336 -108q88 0 240 44l28 4q148 0 196 -168v-40q0 -55 -44 -116q-45 -61 -236 -100 q-102 -16 -184 -16h-4q-370 0 -668 268q-308 305 -308 716zM697 -282q0 63 76 103l338 120h14q54 0 76 -55l3 -17v-6q0 -59 -76 -92q-258 -179 -277 -179l-36 -6l-3 3v-3q-115 21 -115 132z" />
<glyph unicode="&#xc8;" horiz-adv-x="1172" d="M80 196v1560q0 179 192 208h620q144 0 196 -148l4 -40v-24q0 -119 -148 -176l-36 -4h-436v-388l8 -8h424q147 0 188 -172v-36q0 -118 -136 -172q-21 -12 -96 -12h-388v-392h424q116 0 176 -108q20 -34 20 -80v-16q0 -127 -140 -180l-56 -8h-608q-146 0 -196 132 q-12 26 -12 64zM227 2305q0 83 105 101h4q45 0 298 -166q136 -60 136 -141l-9 -35q-24 -70 -100 -70h-9q-34 0 -324 184q-101 44 -101 127z" />
<glyph unicode="&#xc9;" horiz-adv-x="1172" d="M80 196v1560q0 179 192 208h620q144 0 196 -148l4 -40v-24q0 -119 -148 -176l-36 -4h-436v-388l8 -8h424q147 0 188 -172v-36q0 -118 -136 -172q-21 -12 -96 -12h-388v-392h424q116 0 176 -108q20 -34 20 -80v-16q0 -127 -140 -180l-56 -8h-608q-146 0 -196 132 q-12 26 -12 64zM330 2089q0 81 136 141q253 166 298 166h4q105 -18 105 -101t-101 -127q-290 -184 -324 -184h-9q-76 0 -100 70z" />
<glyph unicode="&#xca;" horiz-adv-x="1172" d="M80 196v1560q0 179 192 208h620q144 0 196 -148l4 -40v-24q0 -119 -148 -176l-36 -4h-436v-388l8 -8h424q147 0 188 -172v-36q0 -118 -136 -172q-21 -12 -96 -12h-388v-392h424q116 0 176 -108q20 -34 20 -80v-16q0 -127 -140 -180l-56 -8h-608q-146 0 -196 132 q-12 26 -12 64zM224 2112v4q0 78 156 160q124 100 192 100h32q75 0 192 -96q94 -54 136 -96q24 -42 24 -64v-12q0 -101 -112 -124h-16q-52 0 -160 84q-71 48 -84 48q-176 -132 -228 -132h-20q-73 0 -108 96z" />
<glyph unicode="&#xcb;" horiz-adv-x="1172" d="M80 196v1560q0 179 192 208h620q144 0 196 -148l4 -40v-24q0 -119 -148 -176l-36 -4h-436v-388l8 -8h424q147 0 188 -172v-36q0 -118 -136 -172q-21 -12 -96 -12h-388v-392h424q116 0 176 -108q20 -34 20 -80v-16q0 -127 -140 -180l-56 -8h-608q-146 0 -196 132 q-12 26 -12 64zM172 2162q0 42 21 80t59 58t78 20t77.5 -20t59 -58t21.5 -80q0 -41 -21 -78.5t-58.5 -58.5t-78.5 -21t-78.5 21t-58.5 58.5t-21 78.5zM698 2162q0 41 21.5 79t59 58.5t77.5 20.5t77.5 -20.5t59 -58.5t21.5 -79t-20.5 -78.5t-58.5 -58.5t-79 -21t-78.5 21 t-58.5 58.5t-21 78.5z" />
<glyph unicode="&#xcc;" horiz-adv-x="732" d="M80 2295q0 83 105 101h4q45 0 298 -166q136 -60 136 -141l-9 -35q-24 -70 -100 -70h-9q-34 0 -324 184q-101 44 -101 127zM256 244v1480q0 167 108 216q46 22 88 24q136 0 188 -140q12 -23 12 -104v-1500q0 -168 -148 -212q-15 -8 -48 -8q-137 0 -188 140q-12 23 -12 104 z" />
<glyph unicode="&#xcd;" horiz-adv-x="706" d="M80 244v1480q0 167 108 216q46 22 88 24q136 0 188 -140q12 -23 12 -104v-1500q0 -168 -148 -212q-15 -8 -48 -8q-137 0 -188 140q-12 23 -12 104zM83 2119q0 81 136 141q253 166 298 166h4q105 -18 105 -101t-101 -127q-290 -184 -324 -184h-9q-76 0 -100 70z" />
<glyph unicode="&#xce;" horiz-adv-x="892" d="M80 2092v4q0 78 156 160q124 100 192 100h32q75 0 192 -96q94 -54 136 -96q24 -42 24 -64v-12q0 -101 -112 -124h-16q-52 0 -160 84q-71 48 -84 48q-176 -132 -228 -132h-20q-73 0 -108 96zM260 244v1480q0 167 108 216q46 22 88 24q136 0 188 -140q12 -23 12 -104v-1500 q0 -168 -148 -212q-15 -8 -48 -8q-137 0 -188 140q-12 23 -12 104z" />
<glyph unicode="&#xcf;" horiz-adv-x="1002" d="M80 2123q0 42 21 80t59 58t78 20t77.5 -20t59 -58t21.5 -80q0 -41 -21 -78.5t-58.5 -58.5t-78.5 -21t-78.5 21t-58.5 58.5t-21 78.5zM295 244v1480q0 167 108 216q46 22 88 24q136 0 188 -140q12 -23 12 -104v-1500q0 -168 -148 -212q-15 -8 -48 -8q-137 0 -188 140 q-12 23 -12 104zM606 2123q0 41 21.5 79t59 58.5t77.5 20.5t77.5 -20.5t59 -58.5t21.5 -79t-20.5 -78.5t-58.5 -58.5t-79 -21t-78.5 21t-58.5 58.5t-21 78.5z" />
<glyph unicode="&#xd0;" horiz-adv-x="1948" d="M80 992q0 90 96 148q38 20 64 20h40v532q0 178 108 224q0 35 540 52h84q341 0 616 -304q240 -295 240 -680q0 -404 -264 -708q-269 -276 -592 -276h-536q-131 0 -184 140q-12 20 -12 116v552h-24q-132 0 -172 144zM676 396h332q233 0 396 280q68 154 68 292v32 q0 268 -200 464q-129 112 -304 112q-238 -8 -292 -16v-400h48q122 0 168 -132q3 -32 8 -32q0 -136 -136 -184l-24 -4h-56l-8 -8v-404z" />
<glyph unicode="&#xd1;" horiz-adv-x="1844" d="M80 172v1608q0 131 160 180l44 4q108 0 232 -184l856 -1032v1020q0 147 164 192l32 4q132 0 188 -144l8 -68v-1540q0 -154 -140 -204l-64 -8q-112 0 -224 172l-864 1044v-1000q0 -162 -148 -208q-15 -8 -48 -8q-143 0 -192 152zM531 2092v27q0 110 233 206l55 4h27 q68 0 170 -82l59 -27q47 14 137 105l37 9q137 -31 137 -128v-18q0 -133 -256 -220l-59 -4q-61 0 -183 91l-51 18q-31 0 -128 -100l-32 -9h-18q-128 31 -128 128z" />
<glyph unicode="&#xd2;" horiz-adv-x="2124" d="M80 988q0 378 284 684q305 292 700 292q452 0 776 -380q204 -280 204 -600v-4q0 -479 -416 -804q-270 -176 -564 -176h-4q-461 0 -776 384q-204 271 -204 604zM472 980q0 -275 236 -468q163 -120 356 -120q319 0 508 296q80 137 80 300q0 310 -300 508q-151 76 -292 76 q-222 0 -408 -168q-180 -186 -180 -424zM642 2295q0 83 105 101h4q45 0 298 -166q136 -60 136 -141l-9 -35q-24 -70 -100 -70h-9q-34 0 -324 184q-101 44 -101 127z" />
<glyph unicode="&#xd3;" horiz-adv-x="2124" d="M80 988q0 378 284 684q305 292 700 292q452 0 776 -380q204 -280 204 -600v-4q0 -479 -416 -804q-270 -176 -564 -176h-4q-461 0 -776 384q-204 271 -204 604zM472 980q0 -275 236 -468q163 -120 356 -120q319 0 508 296q80 137 80 300q0 310 -300 508q-151 76 -292 76 q-222 0 -408 -168q-180 -186 -180 -424zM782 2079q0 81 136 141q253 166 298 166h4q105 -18 105 -101t-101 -127q-290 -184 -324 -184h-9q-76 0 -100 70z" />
<glyph unicode="&#xd4;" horiz-adv-x="2124" d="M80 988q0 378 284 684q305 292 700 292q452 0 776 -380q204 -280 204 -600v-4q0 -479 -416 -804q-270 -176 -564 -176h-4q-461 0 -776 384q-204 271 -204 604zM472 980q0 -275 236 -468q163 -120 356 -120q319 0 508 296q80 137 80 300q0 310 -300 508q-151 76 -292 76 q-222 0 -408 -168q-180 -186 -180 -424zM694 2102v4q0 78 156 160q124 100 192 100h32q75 0 192 -96q94 -54 136 -96q24 -42 24 -64v-12q0 -101 -112 -124h-16q-52 0 -160 84q-71 48 -84 48q-176 -132 -228 -132h-20q-73 0 -108 96z" />
<glyph unicode="&#xd5;" horiz-adv-x="2124" d="M80 988q0 378 284 684q305 292 700 292q452 0 776 -380q204 -280 204 -600v-4q0 -479 -416 -804q-270 -176 -564 -176h-4q-461 0 -776 384q-204 271 -204 604zM472 980q0 -275 236 -468q163 -120 356 -120q319 0 508 296q80 137 80 300q0 310 -300 508q-151 76 -292 76 q-222 0 -408 -168q-180 -186 -180 -424zM596 2092v27q0 110 233 206l55 4h27q68 0 170 -82l59 -27q47 14 137 105l37 9q137 -31 137 -128v-18q0 -133 -256 -220l-59 -4q-61 0 -183 91l-51 18q-31 0 -128 -100l-32 -9h-18q-128 31 -128 128z" />
<glyph unicode="&#xd6;" horiz-adv-x="2124" d="M80 988q0 378 284 684q305 292 700 292q452 0 776 -380q204 -280 204 -600v-4q0 -479 -416 -804q-270 -176 -564 -176h-4q-461 0 -776 384q-204 271 -204 604zM472 980q0 -275 236 -468q163 -120 356 -120q319 0 508 296q80 137 80 300q0 310 -300 508q-151 76 -292 76 q-222 0 -408 -168q-180 -186 -180 -424zM634 2123q0 42 21 80t59 58t78 20t77.5 -20t59 -58t21.5 -80q0 -41 -21 -78.5t-58.5 -58.5t-78.5 -21t-78.5 21t-58.5 58.5t-21 78.5zM1160 2123q0 41 21.5 79t59 58.5t77.5 20.5t77.5 -20.5t59 -58.5t21.5 -79t-20.5 -78.5 t-58.5 -58.5t-79 -21t-78.5 21t-58.5 58.5t-21 78.5z" />
<glyph unicode="&#xd7;" horiz-adv-x="1420" d="M80 204l408 592l-356 520v4l300 204l280 -404l280 404l296 -208l-356 -516l408 -592l-296 -208h-8q-14 30 -328 476l-328 -476z" />
<glyph unicode="&#xd8;" horiz-adv-x="2124" d="M80 984q0 448 368 763q283 217 612 217q385 0 692 -285q82 99 130 99q54 0 67 -75q0 -33 -103 -130v-4q194 -271 194 -561v-20l4 -4l-4 -4v-36q0 -290 -213 -576q-319 -368 -767 -368q-315 0 -589 198q-190 -190 -197 -190l-32 -8q-67 17 -67 59v16q0 44 110 138l76 79 q-281 304 -281 692zM471 980q0 -222 166 -407h4l830 830v4l-67 55q-165 107 -328 107h-40q-230 0 -423 -206q-142 -175 -142 -383zM756 482q143 -91 304 -91q306 0 506 285q83 151 83 296v12q0 164 -87 304h-4z" />
<glyph unicode="&#xd9;" horiz-adv-x="1648" d="M80 696v1044q0 172 148 216l48 8q142 0 192 -152q8 -39 8 -108v-1072q0 -143 220 -220q62 -20 132 -20q220 0 332 172q16 46 16 80v1120q0 140 148 192l48 8q132 0 188 -140l8 -48v-1140q0 -317 -320 -524q-196 -112 -420 -112h-16q-372 0 -620 300q-112 150 -112 396z M387 2181q0 83 105 101h4q45 0 298 -166q136 -60 136 -141l-9 -35q-24 -70 -100 -70h-9q-34 0 -324 184q-101 44 -101 127z" />
<glyph unicode="&#xda;" horiz-adv-x="1648" d="M80 696v1044q0 172 148 216l48 8q142 0 192 -152q8 -39 8 -108v-1072q0 -143 220 -220q62 -20 132 -20q220 0 332 172q16 46 16 80v1120q0 140 148 192l48 8q132 0 188 -140l8 -48v-1140q0 -317 -320 -524q-196 -112 -420 -112h-16q-372 0 -620 300q-112 150 -112 396z M680 2016q0 81 136 141q253 166 298 166h4q105 -18 105 -101t-101 -127q-290 -184 -324 -184h-9q-76 0 -100 70z" />
<glyph unicode="&#xdb;" horiz-adv-x="1648" d="M80 696v1044q0 172 148 216l48 8q142 0 192 -152q8 -39 8 -108v-1072q0 -143 220 -220q62 -20 132 -20q220 0 332 172q16 46 16 80v1120q0 140 148 192l48 8q132 0 188 -140l8 -48v-1140q0 -317 -320 -524q-196 -112 -420 -112h-16q-372 0 -620 300q-112 150 -112 396z M461 2034v4q0 78 156 160q124 100 192 100h32q75 0 192 -96q94 -54 136 -96q24 -42 24 -64v-12q0 -101 -112 -124h-16q-52 0 -160 84q-71 48 -84 48q-176 -132 -228 -132h-20q-73 0 -108 96z" />
<glyph unicode="&#xdc;" horiz-adv-x="1648" d="M80 696v1044q0 172 148 216l48 8q142 0 192 -152q8 -39 8 -108v-1072q0 -143 220 -220q62 -20 132 -20q220 0 332 172q16 46 16 80v1120q0 140 148 192l48 8q132 0 188 -140l8 -48v-1140q0 -317 -320 -524q-196 -112 -420 -112h-16q-372 0 -620 300q-112 150 -112 396z M401 2092q0 42 21 80t59 58t78 20t77.5 -20t59 -58t21.5 -80q0 -41 -21 -78.5t-58.5 -58.5t-78.5 -21t-78.5 21t-58.5 58.5t-21 78.5zM927 2092q0 41 21.5 79t59 58.5t77.5 20.5t77.5 -20.5t59 -58.5t21.5 -79t-20.5 -78.5t-58.5 -58.5t-79 -21t-78.5 21t-58.5 58.5 t-21 78.5z" />
<glyph unicode="&#xdd;" horiz-adv-x="1616" d="M80 1768q0 138 156 192l40 4q126 0 220 -168l308 -444h8q334 490 396 560q62 52 132 52q136 0 188 -148l8 -44q0 -89 -108 -220l-424 -608v-748q0 -143 -156 -192l-40 -4q-131 0 -188 140l-8 60v736q0 16 -192 284q-310 438 -328 480zM642 2069q0 81 136 141 q253 166 298 166h4q105 -18 105 -101t-101 -127q-290 -184 -324 -184h-9q-76 0 -100 70z" />
<glyph unicode="&#xde;" horiz-adv-x="1460" d="M80 232v43v1506q0 137 152 188l40 4q139 0 192 -144q8 -34 8 -88v-85h296q192 0 388 -152q224 -201 224 -488q0 -328 -296 -536q-146 -100 -404 -100h-208v-188q0 -137 -152 -188l-40 -4q-139 0 -192 144q-8 34 -8 88zM472 776h284q152 0 220 172q8 14 12 76 q0 142 -152 220q-32 20 -176 20h-180l-8 -8v-480z" />
<glyph unicode="&#xdf;" horiz-adv-x="1377" d="M80 249v1130q0 358 328 534q127 51 233 51q304 0 490 -288q71 -141 71 -281q0 -167 -106 -328q47 -34 102 -115q99 -159 99 -324v-39q0 -245 -217 -447q-178 -142 -395 -142q-113 0 -178 126l-12 52v20q0 142 154 189q134 14 150 40q52 23 87 95q20 42 20 98 q0 143 -158 206q-21 7 -146 12q-90 26 -123 87h-4v-696q0 -156 -130 -213l-60 -8h-15q-131 0 -186 154zM475 1138q64 91 202 91q130 51 130 158v24q0 108 -126 154l-32 4h-16q-110 0 -154 -131l-4 -31v-269z" />
<glyph unicode="&#xe0;" d="M80 770v24q0 394 256 627q176 144 408 144q214 0 452 -172q69 80 140 80q145 0 184 -152l4 -52v-1081q0 -141 -148 -184h-52q-84 0 -144 108q0 12 -8 12q-191 -120 -364 -120h-68q-240 0 -436 172q-224 228 -224 594zM436 783q0 -111 48 -211.5t135 -156t181 -55.5 t181 55.5t135 156t48 211.5t-49.5 212.5t-136.5 156.5t-178 55q-92 0 -179 -55t-136 -156.5t-49 -212.5zM464 1924q0 83 105 101h4q45 0 298 -166q136 -60 136 -141l-9 -35q-24 -70 -100 -70h-9q-34 0 -324 184q-101 44 -101 127z" />
<glyph unicode="&#xe1;" d="M80 770v24q0 394 256 627q176 144 408 144q214 0 452 -172q69 80 140 80q145 0 184 -152l4 -52v-1081q0 -141 -148 -184h-52q-84 0 -144 108q0 12 -8 12q-191 -120 -364 -120h-68q-240 0 -436 172q-224 228 -224 594zM436 783q0 -111 48 -211.5t135 -156t181 -55.5 t181 55.5t135 156t48 211.5t-49.5 212.5t-136.5 156.5t-178 55q-92 0 -179 -55t-136 -156.5t-49 -212.5zM649 1732q0 81 136 141q253 166 298 166h4q105 -18 105 -101t-101 -127q-290 -184 -324 -184h-9q-76 0 -100 70z" />
<glyph unicode="&#xe2;" d="M80 770v24q0 394 256 627q176 144 408 144q214 0 452 -172q69 80 140 80q145 0 184 -152l4 -52v-1081q0 -141 -148 -184h-52q-84 0 -144 108q0 12 -8 12q-191 -120 -364 -120h-68q-240 0 -436 172q-224 228 -224 594zM436 783q0 -111 48 -211.5t135 -156t181 -55.5 t181 55.5t135 156t48 211.5t-49.5 212.5t-136.5 156.5t-178 55q-92 0 -179 -55t-136 -156.5t-49 -212.5zM551 1793v4q0 78 156 160q124 100 192 100h32q75 0 192 -96q94 -54 136 -96q24 -42 24 -64v-12q0 -101 -112 -124h-16q-52 0 -160 84q-71 48 -84 48 q-176 -132 -228 -132h-20q-73 0 -108 96z" />
<glyph unicode="&#xe3;" d="M80 770v24q0 394 256 627q176 144 408 144q214 0 452 -172q69 80 140 80q145 0 184 -152l4 -52v-1081q0 -141 -148 -184h-52q-84 0 -144 108q0 12 -8 12q-191 -120 -364 -120h-68q-240 0 -436 172q-224 228 -224 594zM436 783q0 -111 48 -211.5t135 -156t181 -55.5 t181 55.5t135 156t48 211.5t-49.5 212.5t-136.5 156.5t-178 55q-92 0 -179 -55t-136 -156.5t-49 -212.5zM527 1723v27q0 110 233 206l55 4h27q68 0 170 -82l59 -27q47 14 137 105l37 9q137 -31 137 -128v-18q0 -133 -256 -220l-59 -4q-61 0 -183 91l-51 18q-31 0 -128 -100 l-32 -9h-18q-128 31 -128 128z" />
<glyph unicode="&#xe4;" d="M80 770v24q0 394 256 627q176 144 408 144q214 0 452 -172q69 80 140 80q145 0 184 -152l4 -52v-1081q0 -141 -148 -184h-52q-84 0 -144 108q0 12 -8 12q-191 -120 -364 -120h-68q-240 0 -436 172q-224 228 -224 594zM436 783q0 -111 48 -211.5t135 -156t181 -55.5 t181 55.5t135 156t48 211.5t-49.5 212.5t-136.5 156.5t-178 55q-92 0 -179 -55t-136 -156.5t-49 -212.5zM477 1807q0 42 21 80t59 58t78 20t77.5 -20t59 -58t21.5 -80q0 -41 -21 -78.5t-58.5 -58.5t-78.5 -21t-78.5 21t-58.5 58.5t-21 78.5zM1003 1807q0 41 21.5 79t59 58.5 t77.5 20.5t77.5 -20.5t59 -58.5t21.5 -79t-20.5 -78.5t-58.5 -58.5t-79 -21t-78.5 21t-58.5 58.5t-21 78.5z" />
<glyph unicode="&#xe5;" d="M80 770v24q0 394 256 627q176 144 408 144q214 0 452 -172q69 80 140 80q145 0 184 -152l4 -52v-1081q0 -141 -148 -184h-52q-84 0 -144 108q0 12 -8 12q-191 -120 -364 -120h-68q-240 0 -436 172q-224 228 -224 594zM436 783q0 -111 48 -211.5t135 -156t181 -55.5 t181 55.5t135 156t48 211.5t-49.5 212.5t-136.5 156.5t-178 55q-92 0 -179 -55t-136 -156.5t-49 -212.5zM600 1930v20q0 148 164 244q61 24 104 24h24q106 0 188 -76q88 -92 88 -184v-20l4 -4l-4 -4v-16q0 -138 -156 -236q-64 -28 -112 -28h-32q-136 0 -232 144 q-36 62 -36 136zM728 1916q0 -81 104 -131q17 -9 49 -9h23q77 0 131 99q10 18 10 50v18q0 114 -136 150h-41q-95 0 -140 -132v-45z" />
<glyph unicode="&#xe6;" horiz-adv-x="2578" d="M80 775v23q0 440 312 672q161 91 297 91h59q186 0 407 -162h8q47 71 142 71q60 0 115 -43q67 53 146 87q141 51 253 51q329 0 561 -304q118 -195 118 -400l-4 -43l4 -32q-27 -162 -162 -162l-39 -4l-786 -4v-3q44 -136 165 -206q94 -47 178 -47h12l4 -4l4 4h20 q142 0 284 130q50 20 68 20h43q77 0 138 -99q16 -33 16 -67v-16q0 -114 -162 -205q-184 -123 -407 -123q-202 0 -407 115q-53 -115 -166 -115q-108 0 -166 115h-4q-180 -115 -375 -115q-428 0 -609 403q-67 171 -67 372zM436 782q0 -346 225 -414l71 -8h36q170 0 292 185 q63 112 63 233q0 230 -272 396q-82 31 -123 31h-8q-180 0 -253 -209q-31 -106 -31 -214zM1507 952h158l462 4v4q-29 111 -134 194q-88 51 -170 51h-8q-162 0 -265 -154q-26 -42 -43 -99z" />
<glyph unicode="&#xe7;" horiz-adv-x="1368" d="M80 790q0 329 264 579q232 196 512 196q166 0 336 -76q92 -59 92 -164q0 -119 -140 -167l-48 -4l-152 44l-68 8h-36q-143 0 -272 -116q-128 -135 -128 -288v-52q0 -139 136 -283q128 -108 280 -108h4q88 0 212 52l44 4q126 0 172 -148v-51q0 -86 -112 -144 q-147 -68 -296 -68h-44q-327 0 -584 287q-172 227 -172 499zM502 -281q0 63 76 103l338 120h14q54 0 76 -55l3 -17v-6q0 -59 -76 -92q-258 -179 -277 -179l-36 -6l-3 3v-3q-115 21 -115 132z" />
<glyph unicode="&#xe8;" horiz-adv-x="1552" d="M80 794q0 233 156 459q249 312 612 312q200 0 400 -152q224 -213 224 -499v-32q0 -138 -64 -187q-45 -48 -160 -48h-788q59 -162 192 -236q95 -52 188 -52q150 0 268 96q48 32 96 32h8q129 0 172 -136l4 -36v-16q0 -159 -356 -275q-93 -20 -156 -20h-56q-261 0 -500 212 q-240 247 -240 578zM475 1917q0 83 105 101h4q45 0 298 -166q136 -60 136 -141l-9 -35q-24 -70 -100 -70h-9q-34 0 -324 184q-101 44 -101 127zM500 1006h600q-38 111 -120 160q-71 40 -132 40h-16q-198 0 -332 -200z" />
<glyph unicode="&#xe9;" horiz-adv-x="1552" d="M80 794q0 233 156 459q249 312 612 312q200 0 400 -152q224 -213 224 -499v-32q0 -138 -64 -187q-45 -48 -160 -48h-788q59 -162 192 -236q95 -52 188 -52q150 0 268 96q48 32 96 32h8q129 0 172 -136l4 -36v-16q0 -159 -356 -275q-93 -20 -156 -20h-56q-261 0 -500 212 q-240 247 -240 578zM500 1006h600q-38 111 -120 160q-71 40 -132 40h-16q-198 0 -332 -200zM527 1687q0 81 136 141q253 166 298 166h4q105 -18 105 -101t-101 -127q-290 -184 -324 -184h-9q-76 0 -100 70z" />
<glyph unicode="&#xea;" horiz-adv-x="1552" d="M80 794q0 233 156 459q249 312 612 312q200 0 400 -152q224 -213 224 -499v-32q0 -138 -64 -187q-45 -48 -160 -48h-788q59 -162 192 -236q95 -52 188 -52q150 0 268 96q48 32 96 32h8q129 0 172 -136l4 -36v-16q0 -159 -356 -275q-93 -20 -156 -20h-56q-261 0 -500 212 q-240 247 -240 578zM453 1701v4q0 78 156 160q124 100 192 100h32q75 0 192 -96q94 -54 136 -96q24 -42 24 -64v-12q0 -101 -112 -124h-16q-52 0 -160 84q-71 48 -84 48q-176 -132 -228 -132h-20q-73 0 -108 96zM500 1006h600q-38 111 -120 160q-71 40 -132 40h-16 q-198 0 -332 -200z" />
<glyph unicode="&#xeb;" horiz-adv-x="1552" d="M80 794q0 233 156 459q249 312 612 312q200 0 400 -152q224 -213 224 -499v-32q0 -138 -64 -187q-45 -48 -160 -48h-788q59 -162 192 -236q95 -52 188 -52q150 0 268 96q48 32 96 32h8q129 0 172 -136l4 -36v-16q0 -159 -356 -275q-93 -20 -156 -20h-56q-261 0 -500 212 q-240 247 -240 578zM364 1806q0 42 21 80t59 58t78 20t77.5 -20t59 -58t21.5 -80q0 -41 -21 -78.5t-58.5 -58.5t-78.5 -21t-78.5 21t-58.5 58.5t-21 78.5zM500 1006h600q-38 111 -120 160q-71 40 -132 40h-16q-198 0 -332 -200zM890 1806q0 41 21.5 79t59 58.5t77.5 20.5 t77.5 -20.5t59 -58.5t21.5 -79t-20.5 -78.5t-58.5 -58.5t-79 -21t-78.5 21t-58.5 58.5t-21 78.5z" />
<glyph unicode="&#xec;" horiz-adv-x="766" d="M80 1931q0 83 105 101h4q45 0 298 -166q136 -60 136 -141l-9 -35q-24 -70 -100 -70h-9q-34 0 -324 184q-101 44 -101 127zM326 208v1169q0 141 144 184l40 4q88 0 148 -88q28 -36 28 -140v-1121q0 -153 -112 -200q-31 -12 -56 -12h-24q-105 0 -156 120q-12 24 -12 84z " />
<glyph unicode="&#xed;" horiz-adv-x="703" d="M80 1729q0 81 136 141q253 166 298 166h4q105 -18 105 -101t-101 -127q-290 -184 -324 -184h-9q-76 0 -100 70zM85 208v1169q0 141 144 184l40 4q88 0 148 -88q28 -36 28 -140v-1121q0 -153 -112 -200q-31 -12 -56 -12h-24q-105 0 -156 120q-12 24 -12 84z" />
<glyph unicode="&#xee;" horiz-adv-x="746" d="M80 1701v4q0 78 125 160q99 100 153 100h26q60 0 154 -96q75 -54 108 -96q20 -42 20 -64v-12q0 -101 -90 -124h-13q-41 0 -128 84q-57 48 -67 48q-141 -132 -182 -132h-16q-59 0 -87 96zM205 208v1169q0 141 144 184l40 4q88 0 148 -88q28 -36 28 -140v-1121 q0 -153 -112 -200q-31 -12 -56 -12h-24q-105 0 -156 120q-12 24 -12 84z" />
<glyph unicode="&#xef;" horiz-adv-x="1002" d="M80 1807q0 42 21 80t59 58t78 20t77.5 -20t59 -58t21.5 -80q0 -41 -21 -78.5t-58.5 -58.5t-78.5 -21t-78.5 21t-58.5 58.5t-21 78.5zM324 208v1169q0 141 144 184l40 4q88 0 148 -88q28 -36 28 -140v-1121q0 -153 -112 -200q-31 -12 -56 -12h-24q-105 0 -156 120 q-12 24 -12 84zM606 1807q0 41 21.5 79t59 58.5t77.5 20.5t77.5 -20.5t59 -58.5t21.5 -79t-20.5 -78.5t-58.5 -58.5t-79 -21t-78.5 21t-58.5 58.5t-21 78.5z" />
<glyph unicode="&#xf0;" horiz-adv-x="1568" d="M80 704q0 359 256 580q181 124 360 124h64q98 0 248 -60v4q-132 152 -188 168l-300 -96h-8q-68 14 -68 60v4q0 77 104 92q1 6 48 16v4l-72 4q-94 0 -236 -44l-24 -4q-116 0 -172 124l-12 64q0 62 68 136q161 84 380 84q300 0 572 -196l180 56h12q64 -17 64 -64v-8 q0 -67 -128 -92l-4 -4q196 -229 248 -496q16 -95 16 -148v-336q0 -270 -244 -500q-220 -176 -464 -176h-48q-307 0 -508 240q-144 200 -144 464zM440 704l4 -16v-12q0 -206 156 -288q68 -28 144 -28h24q222 0 336 216q24 63 24 120v12q0 166 -248 304q-84 36 -148 36h-16 q-188 0 -256 -200q-16 -71 -16 -112v-16z" />
<glyph unicode="&#xf1;" horiz-adv-x="1416" d="M80 160v1209q0 124 136 168l36 4h16q55 0 120 -52q151 76 320 76q281 0 488 -212q140 -160 140 -347l-8 -76v-726q0 -153 -136 -196l-32 -4h-24q-114 0 -164 140l-4 76v714q-8 128 -28 168q-85 131 -220 131h-24q-177 0 -244 -167l-16 -124v-754q0 -147 -156 -184h-44 q-84 0 -144 108zM335 1723v27q0 110 233 206l55 4h27q68 0 170 -82l59 -27q47 14 137 105l37 9q137 -31 137 -128v-18q0 -133 -256 -220l-59 -4q-61 0 -183 91l-51 18q-31 0 -128 -100l-32 -9h-18q-128 31 -128 128z" />
<glyph unicode="&#xf2;" horiz-adv-x="1608" d="M80 782q0 361 284 623q180 125 248 128q84 32 196 32q360 0 604 -351q116 -213 116 -416v-32q0 -346 -284 -606q-210 -156 -408 -156h-64q-246 0 -476 224q-216 248 -216 554zM440 782q0 -254 212 -383q71 -40 152 -40h4q178 0 296 180q68 117 68 243q0 265 -236 400 q-68 24 -120 24h-20q-174 0 -292 -184q-64 -108 -64 -228v-12zM444 1923q0 83 105 101h4q45 0 298 -166q136 -60 136 -141l-9 -35q-24 -70 -100 -70h-9q-34 0 -324 184q-101 44 -101 127z" />
<glyph unicode="&#xf3;" horiz-adv-x="1608" d="M80 782q0 361 284 623q180 125 248 128q84 32 196 32q360 0 604 -351q116 -213 116 -416v-32q0 -346 -284 -606q-210 -156 -408 -156h-64q-246 0 -476 224q-216 248 -216 554zM440 782q0 -254 212 -383q71 -40 152 -40h4q178 0 296 180q68 117 68 243q0 265 -236 400 q-68 24 -120 24h-20q-174 0 -292 -184q-64 -108 -64 -228v-12zM575 1728q0 81 136 141q253 166 298 166h4q105 -18 105 -101t-101 -127q-290 -184 -324 -184h-9q-76 0 -100 70z" />
<glyph unicode="&#xf4;" horiz-adv-x="1608" d="M80 782q0 361 284 623q180 125 248 128q84 32 196 32q360 0 604 -351q116 -213 116 -416v-32q0 -346 -284 -606q-210 -156 -408 -156h-64q-246 0 -476 224q-216 248 -216 554zM437 1700v4q0 78 156 160q124 100 192 100h32q75 0 192 -96q94 -54 136 -96q24 -42 24 -64 v-12q0 -101 -112 -124h-16q-52 0 -160 84q-71 48 -84 48q-176 -132 -228 -132h-20q-73 0 -108 96zM440 782q0 -254 212 -383q71 -40 152 -40h4q178 0 296 180q68 117 68 243q0 265 -236 400q-68 24 -120 24h-20q-174 0 -292 -184q-64 -108 -64 -228v-12z" />
<glyph unicode="&#xf5;" horiz-adv-x="1608" d="M80 782q0 361 284 623q180 125 248 128q84 32 196 32q360 0 604 -351q116 -213 116 -416v-32q0 -346 -284 -606q-210 -156 -408 -156h-64q-246 0 -476 224q-216 248 -216 554zM380 1722v27q0 110 233 206l55 4h27q68 0 170 -82l59 -27q47 14 137 105l37 9 q137 -31 137 -128v-18q0 -133 -256 -220l-59 -4q-61 0 -183 91l-51 18q-31 0 -128 -100l-32 -9h-18q-128 31 -128 128zM440 782q0 -254 212 -383q71 -40 152 -40h4q178 0 296 180q68 117 68 243q0 265 -236 400q-68 24 -120 24h-20q-174 0 -292 -184q-64 -108 -64 -228v-12z " />
<glyph unicode="&#xf6;" horiz-adv-x="1608" d="M80 782q0 361 284 623q180 125 248 128q84 32 196 32q360 0 604 -351q116 -213 116 -416v-32q0 -346 -284 -606q-210 -156 -408 -156h-64q-246 0 -476 224q-216 248 -216 554zM380 1806q0 42 21 80t59 58t78 20t77.5 -20t59 -58t21.5 -80q0 -41 -21 -78.5t-58.5 -58.5 t-78.5 -21t-78.5 21t-58.5 58.5t-21 78.5zM440 782q0 -254 212 -383q71 -40 152 -40h4q178 0 296 180q68 117 68 243q0 265 -236 400q-68 24 -120 24h-20q-174 0 -292 -184q-64 -108 -64 -228v-12zM906 1806q0 41 21.5 79t59 58.5t77.5 20.5t77.5 -20.5t59 -58.5t21.5 -79 t-20.5 -78.5t-58.5 -58.5t-79 -21t-78.5 21t-58.5 58.5t-21 78.5z" />
<glyph unicode="&#xf7;" horiz-adv-x="160" />
<glyph unicode="&#xf8;" horiz-adv-x="1650" d="M80 786q0 344 265 593q222 186 482 186q286 0 529 -229q107 102 123 102l28 4q59 -20 59 -59l4 -16q0 -34 -123 -146v-4q123 -210 123 -387v-99q0 -188 -139 -407q-244 -324 -604 -324q-249 0 -466 170q-163 -157 -182 -166l-32 -4q-63 17 -63 75q0 43 130 150l44 48 q-178 231 -178 513zM436 782q0 -143 83 -256l581 561q-125 118 -265 118h-12q-231 0 -356 -253q-31 -103 -31 -170zM621 419q101 -59 190 -59h32q209 0 340 245q31 91 31 162v31q0 99 -39 162l-554 -537v-4z" />
<glyph unicode="&#xf9;" horiz-adv-x="1348" d="M80 671v702q0 155 156 188l28 4q125 0 172 -148l4 -72v-750q0 -147 160 -224q43 -12 72 -12h8q152 0 220 172q12 37 12 84v766q0 134 140 180l36 4q125 0 176 -136l4 -24v-822q0 -263 -248 -471q-171 -108 -312 -108h-60q-224 0 -420 204q-128 168 -140 311q-8 52 -8 152 zM283 1863q0 83 105 101h4q45 0 298 -166q136 -60 136 -141l-9 -35q-24 -70 -100 -70h-9q-34 0 -324 184q-101 44 -101 127z" />
<glyph unicode="&#xfa;" horiz-adv-x="1348" d="M80 671v702q0 155 156 188l28 4q125 0 172 -148l4 -72v-750q0 -147 160 -224q43 -12 72 -12h8q152 0 220 172q12 37 12 84v766q0 134 140 180l36 4q125 0 176 -136l4 -24v-822q0 -263 -248 -471q-171 -108 -312 -108h-60q-224 0 -420 204q-128 168 -140 311q-8 52 -8 152 zM484 1658q0 81 136 141q253 166 298 166h4q105 -18 105 -101t-101 -127q-290 -184 -324 -184h-9q-76 0 -100 70z" />
<glyph unicode="&#xfb;" horiz-adv-x="1348" d="M80 671v702q0 155 156 188l28 4q125 0 172 -148l4 -72v-750q0 -147 160 -224q43 -12 72 -12h8q152 0 220 172q12 37 12 84v766q0 134 140 180l36 4q125 0 176 -136l4 -24v-822q0 -263 -248 -471q-171 -108 -312 -108h-60q-224 0 -420 204q-128 168 -140 311q-8 52 -8 152 zM297 1700v4q0 78 156 160q124 100 192 100h32q75 0 192 -96q94 -54 136 -96q24 -42 24 -64v-12q0 -101 -112 -124h-16q-52 0 -160 84q-71 48 -84 48q-176 -132 -228 -132h-20q-73 0 -108 96z" />
<glyph unicode="&#xfc;" horiz-adv-x="1348" d="M80 671v702q0 155 156 188l28 4q125 0 172 -148l4 -72v-750q0 -147 160 -224q43 -12 72 -12h8q152 0 220 172q12 37 12 84v766q0 134 140 180l36 4q125 0 176 -136l4 -24v-822q0 -263 -248 -471q-171 -108 -312 -108h-60q-224 0 -420 204q-128 168 -140 311q-8 52 -8 152 zM230 1806q0 42 21 80t59 58t78 20t77.5 -20t59 -58t21.5 -80q0 -41 -21 -78.5t-58.5 -58.5t-78.5 -21t-78.5 21t-58.5 58.5t-21 78.5zM756 1806q0 41 21.5 79t59 58.5t77.5 20.5t77.5 -20.5t59 -58.5t21.5 -79t-20.5 -78.5t-58.5 -58.5t-79 -21t-78.5 21t-58.5 58.5 t-21 78.5z" />
<glyph unicode="&#xfd;" horiz-adv-x="1592" d="M80 1352v16q0 133 140 184l36 4h24q144 0 200 -224q160 -427 312 -860q16 20 116 312l256 688q50 66 124 84l28 4q108 0 172 -100q21 -39 24 -88q0 -53 -132 -392l-536 -1476q-50 -66 -124 -84l-28 -4q-108 0 -172 100q-21 39 -24 88q0 53 104 341l-108 263 q-396 1068 -412 1144zM687 1657q0 81 136 141q253 166 298 166h4q105 -18 105 -101t-101 -127q-290 -184 -324 -184h-9q-76 0 -100 70z" />
<glyph unicode="&#xfe;" d="M80 -243v2055q0 120 108 172q26 16 84 16q57 0 124 -60q44 -57 44 -148v-342q187 115 356 115h68q240 0 436 -172q224 -228 224 -594v-24q0 -394 -256 -627q-176 -144 -408 -144q-200 0 -420 149v-376q0 -91 -44 -148q-67 -60 -124 -60q-58 0 -84 16q-108 52 -108 172z M440 786q0 -111 49 -212.5t136 -156.5t179 -55t179 55t136 156.5t49 212.5t-48 211.5t-135 156t-181 55.5q-95 0 -181.5 -55.5t-134.5 -156t-48 -211.5z" />
<glyph unicode="&#xff;" horiz-adv-x="1592" d="M80 1352v16q0 133 140 184l36 4h24q144 0 200 -224q160 -427 312 -860q16 20 116 312l256 688q50 66 124 84l28 4q108 0 172 -100q21 -39 24 -88q0 -53 -132 -392l-536 -1476q-50 -66 -124 -84l-28 -4q-108 0 -172 100q-21 39 -24 88q0 53 104 341l-108 263 q-396 1068 -412 1144zM404 1674q0 42 21 80t59 58t78 20t77.5 -20t59 -58t21.5 -80q0 -41 -21 -78.5t-58.5 -58.5t-78.5 -21t-78.5 21t-58.5 58.5t-21 78.5zM930 1674q0 41 21.5 79t59 58.5t77.5 20.5t77.5 -20.5t59 -58.5t21.5 -79t-20.5 -78.5t-58.5 -58.5t-79 -21 t-78.5 21t-58.5 58.5t-21 78.5z" />
<glyph unicode="&#x152;" horiz-adv-x="2827" d="M80 984q0 414 332 735l95 71q262 174 557 174q323 0 609 -213q0 151 134 201q35 12 107 12h612q172 0 217 -150l4 -40v-15q0 -131 -154 -186l-87 -4h-442v-407h446q164 0 206 -111q16 -27 16 -79q0 -83 -87 -142q-38 -28 -131 -28h-450v-403l8 -8h494q111 0 174 -130 l7 -56v-15q0 -126 -134 -178q-23 -12 -83 -12h-644q-163 0 -210 154l-3 59q-280 -213 -617 -213q-306 0 -585 198q-161 134 -233 249q-158 262 -158 537zM475 956q0 -256 249 -458q174 -107 336 -107q272 0 466 229q123 171 123 332v48q0 281 -265 474q-154 95 -296 95h-40 q-257 0 -446 -221q-127 -170 -127 -340v-52z" />
<glyph unicode="&#x153;" horiz-adv-x="2551" d="M80 782q0 313 213 558q217 217 486 217q279 0 502 -229q225 237 510 237q312 0 541 -277q139 -204 139 -415v-19l-4 -32l4 -32q0 -118 -127 -162q-24 -8 -75 -8l-786 -4v-3q35 -112 126 -178q114 -79 237 -79q158 0 305 134q49 20 67 20h43q82 0 147 -111l11 -75 q0 -136 -296 -273q-149 -51 -277 -51q-320 0 -557 245q-215 -245 -510 -245q-311 0 -537 281q-162 221 -162 501zM436 778q0 -243 201 -383q72 -35 127 -35h35q150 0 265 181q51 81 51 214l-4 99v23q0 37 -35 119q-119 205 -293 205q-140 0 -249 -130q-98 -132 -98 -293z M1479 952h158l462 4v4q-45 142 -150 202q-74 43 -154 43h-8q-190 0 -288 -201z" />
<glyph unicode="&#x178;" horiz-adv-x="1616" d="M80 1768q0 138 156 192l40 4q126 0 220 -168l308 -444h8q334 490 396 560q62 52 132 52q136 0 188 -148l8 -44q0 -89 -108 -220l-424 -608v-748q0 -143 -156 -192l-40 -4q-131 0 -188 140l-8 60v736q0 16 -192 284q-310 438 -328 480zM404 2123q0 42 21 80t59 58t78 20 t77.5 -20t59 -58t21.5 -80q0 -41 -21 -78.5t-58.5 -58.5t-78.5 -21t-78.5 21t-58.5 58.5t-21 78.5zM930 2123q0 41 21.5 79t59 58.5t77.5 20.5t77.5 -20.5t59 -58.5t21.5 -79t-20.5 -78.5t-58.5 -58.5t-79 -21t-78.5 21t-58.5 58.5t-21 78.5z" />
<glyph unicode="&#x2c6;" horiz-adv-x="892" d="M80 1728v4q0 78 156 160q124 100 192 100h32q75 0 192 -96q94 -54 136 -96q24 -42 24 -64v-12q0 -101 -112 -124h-16q-52 0 -160 84q-71 48 -84 48q-176 -132 -228 -132h-20q-73 0 -108 96z" />
<glyph unicode="&#x2dc;" horiz-adv-x="1015" d="M80 1750v27q0 110 233 206l55 4h27q68 0 170 -82l59 -27q47 14 137 105l37 9q137 -31 137 -128v-18q0 -133 -256 -220l-59 -4q-61 0 -183 91l-51 18q-31 0 -128 -100l-32 -9h-18q-128 31 -128 128z" />
<glyph unicode="&#x2000;" horiz-adv-x="1213" />
<glyph unicode="&#x2001;" horiz-adv-x="2426" />
<glyph unicode="&#x2002;" horiz-adv-x="1213" />
<glyph unicode="&#x2003;" horiz-adv-x="2426" />
<glyph unicode="&#x2004;" horiz-adv-x="808" />
<glyph unicode="&#x2005;" horiz-adv-x="606" />
<glyph unicode="&#x2006;" horiz-adv-x="404" />
<glyph unicode="&#x2007;" horiz-adv-x="404" />
<glyph unicode="&#x2008;" horiz-adv-x="303" />
<glyph unicode="&#x2009;" horiz-adv-x="485" />
<glyph unicode="&#x200a;" horiz-adv-x="134" />
<glyph unicode="&#x2010;" horiz-adv-x="1082" d="M80 802v16q0 117 132 160l17 3h620q69 0 133 -88q20 -51 20 -85q0 -92 -95 -149q-33 -20 -109 -20h-518q-152 0 -197 122z" />
<glyph unicode="&#x2011;" horiz-adv-x="1082" d="M80 802v16q0 117 132 160l17 3h620q69 0 133 -88q20 -51 20 -85q0 -92 -95 -149q-33 -20 -109 -20h-518q-152 0 -197 122z" />
<glyph unicode="&#x2012;" horiz-adv-x="1082" d="M80 802v16q0 117 132 160l17 3h620q69 0 133 -88q20 -51 20 -85q0 -92 -95 -149q-33 -20 -109 -20h-518q-152 0 -197 122z" />
<glyph unicode="&#x2013;" horiz-adv-x="1330" d="M80 1000v2q0 74 83 100l32 2h940q85 0 113 -76l2 -23v-8q0 -76 -88 -97l-20 -3h-954q-78 0 -106 79z" />
<glyph unicode="&#x2014;" horiz-adv-x="2120" d="M80 1000v2q0 74 83 100l32 2h1730q85 0 113 -76l2 -23v-8q0 -76 -88 -97l-20 -3h-1744q-78 0 -106 79z" />
<glyph unicode="&#x2018;" horiz-adv-x="644" d="M80 1368v16q0 55 92 216q168 364 192 372q44 20 60 20h20q100 0 120 -124q-108 -517 -128 -580q-62 -104 -180 -104q-102 0 -168 124z" />
<glyph unicode="&#x2019;" horiz-adv-x="644" d="M80 1308q108 517 128 580q62 104 180 104q102 0 168 -124l8 -60v-16q0 -55 -92 -216q-168 -364 -192 -372q-44 -20 -60 -20h-20q-100 0 -120 124z" />
<glyph unicode="&#x201a;" horiz-adv-x="644" d="M80 -280q108 517 128 580q62 104 180 104q102 0 168 -124l8 -60v-16q0 -55 -92 -216q-168 -364 -192 -372q-44 -20 -60 -20h-20q-100 0 -120 124z" />
<glyph unicode="&#x201c;" horiz-adv-x="1113" d="M80 1368v16q0 55 92 216q168 364 192 372q44 20 60 20h20q100 0 120 -124q-108 -517 -128 -580q-62 -104 -180 -104q-102 0 -168 124zM549 1368v16q0 55 92 216q168 364 192 372q44 20 60 20h20q100 0 120 -124q-108 -517 -128 -580q-62 -104 -180 -104q-102 0 -168 124z " />
<glyph unicode="&#x201d;" horiz-adv-x="1127" d="M80 1308q108 517 128 580q62 104 180 104q102 0 168 -124l8 -60v-16q0 -55 -92 -216q-168 -364 -192 -372q-44 -20 -60 -20h-20q-100 0 -120 124zM563 1308q108 518 128 580q62 104 180 104q102 0 168 -124l8 -60v-16q0 -54 -92 -216q-168 -363 -192 -372 q-44 -20 -60 -20h-20q-100 0 -120 124z" />
<glyph unicode="&#x201e;" horiz-adv-x="1127" d="M80 -280q108 517 128 580q62 104 180 104q102 0 168 -124l8 -60v-16q0 -55 -92 -216q-168 -364 -192 -372q-44 -20 -60 -20h-20q-100 0 -120 124zM563 -280q108 518 128 580q62 104 180 104q102 0 168 -124l8 -60v-16q0 -54 -92 -216q-168 -363 -192 -372 q-44 -20 -60 -20h-20q-100 0 -120 124z" />
<glyph unicode="&#x2022;" horiz-adv-x="1010" d="M80 782v12q0 120 74 228q137 184 339 184h24q60 0 139 -24q274 -135 274 -400q0 -126 -79 -243q-137 -180 -344 -180h-4q-95 0 -177 40q-246 129 -246 383z" />
<glyph unicode="&#x2026;" horiz-adv-x="1919" d="M80 204q0 143 160 195l35 4q138 0 194 -151l4 -61q0 -94 -90 -160q-45 -30 -104 -30h-9q-135 0 -186 160zM762 204q0 143 160 195l35 4q138 0 194 -151l4 -61q0 -94 -90 -160q-45 -30 -104 -30h-9q-135 0 -186 160zM1446 204q0 143 160 195l35 4q138 0 194 -151l4 -61 q0 -94 -90 -160q-45 -30 -104 -30h-9q-135 0 -186 160z" />
<glyph unicode="&#x202f;" horiz-adv-x="485" />
<glyph unicode="&#x2039;" horiz-adv-x="1836" d="M80 1743v27q0 31 16 68q63 114 170 114q59 -1 59 -8q72 -1 194 -193l833 -1174h8v1130q0 60 8 95q50 150 190 150l59 -8q139 -63 139 -182l-4 -960v-474q0 -150 -79 -237q-90 -91 -198 -91q-151 0 -277 130q-51 60 -660 917l-312 443q-146 177 -146 253z" />
<glyph unicode="&#x203a;" horiz-adv-x="1836" d="M80 1762q0 119 138 182l60 8q139 0 189 -150q8 -35 8 -95v-1130h8l834 1174q122 192 194 193q0 7 59 8q106 0 170 -114q16 -37 16 -68v-27q0 -76 -147 -253l-312 -443q-608 -857 -660 -917q-125 -130 -276 -130q-109 0 -198 91q-79 87 -79 237v474z" />
<glyph unicode="&#x205f;" horiz-adv-x="606" />
<glyph unicode="&#x20ac;" d="M80 984q0 431 348 748q288 232 636 232q204 0 372 -80q84 -75 84 -156q0 -152 -168 -200h-36l-172 36l-84 8q-283 0 -480 -252q-43 -65 -68 -131h574q69 0 133 -88q20 -51 20 -85q0 -92 -95 -149q-33 -20 -109 -20h-518q-16 0 -31 1q46 -201 238 -348q160 -108 336 -108 q88 0 240 44l28 4q148 0 196 -168v-40q0 -55 -44 -116q-45 -61 -236 -100q-102 -16 -184 -16h-4q-370 0 -668 268q-308 305 -308 716z" />
<glyph unicode="&#x2122;" horiz-adv-x="1416" d="M80 1890q0 49 54 69q10 5 34 5h304q55 0 77 -53l3 -21q0 -54 -64 -74h-93v-505q0 -65 -59 -81q-6 -3 -19 -3q-55 0 -75 53q-5 7 -5 43v493h-80q-55 0 -75 58zM496 1299q96 609 102 621q28 44 72 44q66 0 92 -92l153 -366h2q161 402 174 424q28 34 66 34q54 0 77 -58 l102 -604v-6q0 -47 -61 -68l-17 -1q-53 0 -76 54l-56 325h-1q-128 -319 -144 -349q-29 -30 -63 -30q-62 0 -83 67l-129 311h-2q-48 -300 -56 -333q-25 -45 -74 -45q-53 0 -75 54z" />
<glyph unicode="&#x25fc;" horiz-adv-x="1565" d="M0 0v1565h1565v-1565h-1565z" />
</font>
</defs>
</svg>
